<svg width="28" height="20" viewBox="0 0 28 20" fill="none" xmlns="http://www.w3.org/2000/svg">
<g clip-path="url(#clip0_951_30825)">
<path d="M0.640625 0.800781H27.2806V19.2008H0.640625V0.800781Z" fill="white"/>
<path fill-rule="evenodd" clip-rule="evenodd" d="M2.4 0H25.6C26.928 0 28 1.072 28 2.4V17.6C28 18.928 26.928 20 25.6 20H2.4C1.072 20 0 18.928 0 17.6V2.4C0 1.072 1.072 0 2.4 0ZM27.2 2.4C27.2 1.52 26.48 0.8 25.6 0.8H2.4C1.52 0.8 0.8 1.52 0.8 2.4V17.6C0.8 18.48 1.52 19.2 2.4 19.2H25.6C26.48 19.2 27.2 18.48 27.2 17.6V2.4Z" fill="#E7E7E7"/>
<path d="M25.9181 15.4604C25.9181 17.5005 24.2569 19.1617 22.2168 19.1617H2.07812V4.50214C2.07812 2.46198 3.73932 0.800781 5.77948 0.800781H25.9181V15.4604Z" fill="white"/>
<path d="M19.3672 11.6997H20.8973C20.941 11.6997 21.043 11.6851 21.0867 11.6851C21.3781 11.6268 21.6259 11.3645 21.6259 11.0002C21.6259 10.6505 21.3781 10.3882 21.0867 10.3154C21.043 10.3008 20.9556 10.3008 20.8973 10.3008H19.3672V11.6997Z" fill="url(#paint0_linear_951_30825)"/>
<path d="M20.7214 2.03906C19.2642 2.03906 18.0693 3.21941 18.0693 4.6912V7.44533H21.8143C21.9017 7.44533 22.0037 7.44533 22.0766 7.45991C22.9218 7.50362 23.5484 7.94079 23.5484 8.69854C23.5484 9.296 23.1258 9.80602 22.3389 9.90803V9.93717C23.1987 9.99546 23.8544 10.4763 23.8544 11.2195C23.8544 12.021 23.1258 12.5456 22.164 12.5456H18.0547V17.9373H21.9455C23.4027 17.9373 24.5976 16.7569 24.5976 15.2852V2.03906H20.7214Z" fill="url(#paint1_linear_951_30825)"/>
<path d="M21.4364 8.87555C21.4364 8.52582 21.1887 8.29266 20.8973 8.24895C20.8681 8.24895 20.7953 8.23438 20.7515 8.23438H19.3672V9.51673H20.7515C20.7953 9.51673 20.8827 9.51673 20.8973 9.50215C21.1887 9.45844 21.4364 9.22528 21.4364 8.87555Z" fill="url(#paint2_linear_951_30825)"/>
<path d="M6.05733 2.03906C4.60011 2.03906 3.4052 3.21941 3.4052 4.6912V11.2341C4.14838 11.5984 4.9207 11.8316 5.69303 11.8316C6.61107 11.8316 7.10653 11.2778 7.10653 10.5201V7.43076H9.37978V10.5055C9.37978 11.7004 8.6366 12.6767 6.11562 12.6767C4.58554 12.6767 3.39062 12.3416 3.39062 12.3416V17.9227H7.28139C8.73861 17.9227 9.93352 16.7424 9.93352 15.2706V2.03906H6.05733Z" fill="url(#paint3_linear_951_30825)"/>
<path d="M13.3865 2.03906C11.9293 2.03906 10.7344 3.21941 10.7344 4.6912V8.15937C11.4047 7.59106 12.5705 7.22675 14.4503 7.31418C15.4558 7.3579 16.5341 7.63477 16.5341 7.63477V8.75683C15.9949 8.47996 15.3537 8.23223 14.5231 8.17394C13.0951 8.07194 12.2353 8.7714 12.2353 9.99546C12.2353 11.2341 13.0951 11.9336 14.5231 11.817C15.3537 11.7587 15.9949 11.4964 16.5341 11.2341V12.3562C16.5341 12.3562 15.4703 12.633 14.4503 12.6767C12.5705 12.7642 11.4047 12.3999 10.7344 11.8316V17.9519H14.6251C16.0824 17.9519 17.2773 16.7715 17.2773 15.2997V2.03906H13.3865Z" fill="url(#paint4_linear_951_30825)"/>
</g>
<defs>
<linearGradient id="paint0_linear_951_30825" x1="18.0678" y1="7.72792" x2="24.6161" y2="7.72792" gradientUnits="userSpaceOnUse">
<stop stop-color="#007940"/>
<stop offset="0.229" stop-color="#00873F"/>
<stop offset="0.743" stop-color="#40A737"/>
<stop offset="1" stop-color="#5CB531"/>
</linearGradient>
<linearGradient id="paint1_linear_951_30825" x1="18.0665" y1="6.7074" x2="24.6154" y2="6.7074" gradientUnits="userSpaceOnUse">
<stop stop-color="#007940"/>
<stop offset="0.229" stop-color="#00873F"/>
<stop offset="0.743" stop-color="#40A737"/>
<stop offset="1" stop-color="#5CB531"/>
</linearGradient>
<linearGradient id="paint2_linear_951_30825" x1="18.0676" y1="5.59944" x2="24.6163" y2="5.59944" gradientUnits="userSpaceOnUse">
<stop stop-color="#007940"/>
<stop offset="0.229" stop-color="#00873F"/>
<stop offset="0.743" stop-color="#40A737"/>
<stop offset="1" stop-color="#5CB531"/>
</linearGradient>
<linearGradient id="paint3_linear_951_30825" x1="3.40199" y1="6.65698" x2="10.0518" y2="6.65698" gradientUnits="userSpaceOnUse">
<stop stop-color="#1F286F"/>
<stop offset="0.475" stop-color="#004E94"/>
<stop offset="0.826" stop-color="#0066B1"/>
<stop offset="1" stop-color="#006FBC"/>
</linearGradient>
<linearGradient id="paint4_linear_951_30825" x1="10.6966" y1="6.75272" x2="17.1549" y2="6.75272" gradientUnits="userSpaceOnUse">
<stop stop-color="#6C2C2F"/>
<stop offset="0.173" stop-color="#882730"/>
<stop offset="0.573" stop-color="#BE1833"/>
<stop offset="0.859" stop-color="#DC0436"/>
<stop offset="1" stop-color="#E60039"/>
</linearGradient>
<clipPath id="clip0_951_30825">
<rect width="28" height="20" fill="white"/>
</clipPath>
</defs>
</svg>
