<svg width="120" height="120" viewBox="0 0 120 120" fill="none" xmlns="http://www.w3.org/2000/svg">
<path d="M44.5423 104.741L45.4993 101.762L47.7073 102.473L47.5453 102.977L45.9373 102.461L45.7243 103.121L47.2213 103.601L47.0593 104.102L45.5623 103.622L45.3013 104.432L46.9663 104.966L46.8043 105.467L44.5393 104.738L44.5423 104.741Z" fill="#A2895B"/>
<path d="M49.0492 105.02L49.6642 105.092C49.6582 105.302 49.6972 105.467 49.7902 105.584C49.8802 105.704 50.0182 105.782 50.2072 105.821C50.4052 105.863 50.5642 105.854 50.6842 105.791C50.8042 105.728 50.8762 105.641 50.9002 105.527C50.9152 105.455 50.9062 105.389 50.8762 105.329C50.8462 105.269 50.7802 105.209 50.6812 105.149C50.6152 105.107 50.4592 105.029 50.2162 104.909C49.9042 104.756 49.6912 104.606 49.5832 104.456C49.4302 104.246 49.3822 104.021 49.4332 103.781C49.4662 103.625 49.5412 103.49 49.6612 103.373C49.7782 103.256 49.9282 103.181 50.1082 103.145C50.2882 103.109 50.4982 103.118 50.7322 103.169C51.1162 103.25 51.3862 103.397 51.5452 103.607C51.7042 103.817 51.7552 104.063 51.7072 104.348L51.0832 104.243C51.0922 104.081 51.0592 103.955 50.9872 103.868C50.9152 103.781 50.7922 103.718 50.6182 103.682C50.4382 103.643 50.2912 103.649 50.1742 103.703C50.0992 103.736 50.0512 103.793 50.0362 103.871C50.0212 103.943 50.0362 104.012 50.0872 104.075C50.1502 104.156 50.3242 104.267 50.6122 104.402C50.8972 104.537 51.1042 104.66 51.2302 104.765C51.3592 104.873 51.4492 104.999 51.5002 105.149C51.5542 105.299 51.5602 105.47 51.5182 105.662C51.4792 105.836 51.3952 105.992 51.2662 106.124C51.1372 106.256 50.9752 106.34 50.7802 106.376C50.5852 106.412 50.3572 106.403 50.0902 106.343C49.7032 106.259 49.4272 106.106 49.2562 105.884C49.0882 105.659 49.0192 105.374 49.0522 105.023L49.0492 105.02Z" fill="#A2895B"/>
<path d="M54.256 106.988L54.556 104.405L53.635 104.297L53.695 103.772L56.164 104.06L56.104 104.585L55.183 104.477L54.883 107.06L54.256 106.988Z" fill="#A2895B"/>
<path d="M57.3928 107.271L57.4228 106.671L58.0228 106.701L57.9928 107.301L57.3928 107.271Z" fill="#A2895B"/>
<path d="M62.1852 106.747L62.2002 107.305L60.0972 107.359C60.1152 107.149 60.1782 106.945 60.2862 106.756C60.3942 106.564 60.6132 106.309 60.9402 105.988C61.2042 105.73 61.3662 105.556 61.4232 105.463C61.5012 105.337 61.5402 105.214 61.5372 105.094C61.5342 104.959 61.4952 104.857 61.4232 104.788C61.3482 104.719 61.2492 104.686 61.1232 104.689C60.9972 104.692 60.8982 104.731 60.8262 104.809C60.7542 104.887 60.7152 105.013 60.7062 105.187L60.1062 105.142C60.1332 104.812 60.2382 104.572 60.4242 104.422C60.6072 104.275 60.8412 104.197 61.1232 104.188C61.4322 104.179 61.6752 104.257 61.8582 104.419C62.0382 104.581 62.1312 104.785 62.1372 105.034C62.1402 105.175 62.1192 105.31 62.0712 105.439C62.0232 105.568 61.9482 105.703 61.8402 105.844C61.7712 105.937 61.6422 106.075 61.4592 106.252C61.2732 106.432 61.1562 106.549 61.1082 106.606C61.0602 106.663 61.0182 106.72 60.9912 106.774L62.1822 106.744L62.1852 106.747Z" fill="#A2895B"/>
<path d="M64.9581 103.918C65.2581 103.885 65.5071 103.966 65.7021 104.161C65.9331 104.392 66.0831 104.803 66.1491 105.394C66.2151 105.982 66.1611 106.417 65.9871 106.696C65.8431 106.927 65.6211 107.059 65.3181 107.095C65.0151 107.128 64.7571 107.041 64.5471 106.828C64.3341 106.618 64.1961 106.213 64.1271 105.616C64.0611 105.031 64.1151 104.599 64.2891 104.317C64.4331 104.086 64.6551 103.954 64.9581 103.918ZM65.0151 104.413C64.9431 104.422 64.8801 104.452 64.8291 104.503C64.7781 104.554 64.7421 104.644 64.7271 104.764C64.7031 104.923 64.7121 105.184 64.7541 105.55C64.7961 105.916 64.8411 106.162 64.8951 106.297C64.9461 106.429 65.0031 106.516 65.0661 106.555C65.1291 106.594 65.1921 106.609 65.2671 106.6C65.3421 106.591 65.4021 106.561 65.4531 106.51C65.5041 106.459 65.5401 106.369 65.5581 106.249C65.5821 106.09 65.5731 105.832 65.5311 105.466C65.4891 105.1 65.4441 104.851 65.3901 104.719C65.3391 104.587 65.2821 104.5 65.2191 104.461C65.1561 104.422 65.0901 104.407 65.0181 104.413H65.0151Z" fill="#A2895B"/>
<path d="M70.2868 105.647L70.3978 106.193L68.3368 106.613C68.3158 106.403 68.3428 106.193 68.4178 105.986C68.4928 105.779 68.6608 105.488 68.9278 105.116C69.1438 104.816 69.2698 104.615 69.3118 104.516C69.3688 104.378 69.3838 104.249 69.3598 104.132C69.3328 104 69.2758 103.907 69.1918 103.85C69.1078 103.793 69.0028 103.778 68.8798 103.805C68.7568 103.829 68.6668 103.886 68.6098 103.976C68.5528 104.063 68.5348 104.195 68.5588 104.369L67.9618 104.429C67.9318 104.099 67.9918 103.844 68.1478 103.667C68.3038 103.49 68.5198 103.37 68.7958 103.316C69.0988 103.256 69.3538 103.289 69.5578 103.415C69.7648 103.544 69.8908 103.727 69.9418 103.97C69.9688 104.108 69.9718 104.246 69.9478 104.378C69.9238 104.513 69.8728 104.66 69.7918 104.819C69.7378 104.924 69.6388 105.08 69.4858 105.287C69.3358 105.494 69.2398 105.632 69.2038 105.698C69.1648 105.764 69.1378 105.827 69.1168 105.887L70.2838 105.65L70.2868 105.647Z" fill="#A2895B"/>
<path d="M72.1979 104.89L72.7349 104.656C72.7949 104.794 72.8759 104.887 72.9749 104.938C73.0739 104.989 73.1789 105.001 73.2899 104.968C73.4099 104.932 73.4939 104.857 73.5509 104.743C73.6049 104.629 73.6109 104.494 73.5629 104.344C73.5209 104.2 73.4459 104.098 73.3439 104.035C73.2419 103.975 73.1339 103.96 73.0229 103.993C72.9479 104.014 72.8639 104.056 72.7709 104.116L72.6959 103.63C72.8519 103.588 72.9599 103.519 73.0229 103.423C73.0829 103.327 73.0949 103.219 73.0619 103.102C73.0319 103 72.9779 102.931 72.8999 102.886C72.8219 102.844 72.7319 102.838 72.6329 102.868C72.5339 102.898 72.4619 102.955 72.4109 103.045C72.3629 103.135 72.3479 103.246 72.3719 103.381L71.8169 103.45C71.7989 103.258 71.8109 103.096 71.8529 102.967C71.8949 102.835 71.9729 102.721 72.0869 102.619C72.2009 102.517 72.3419 102.442 72.5069 102.394C72.7889 102.31 73.0439 102.331 73.2659 102.463C73.4489 102.568 73.5689 102.715 73.6259 102.898C73.7039 103.162 73.6259 103.414 73.3829 103.657C73.5659 103.642 73.7279 103.684 73.8689 103.783C74.0099 103.879 74.1089 104.02 74.1629 104.2C74.2409 104.464 74.2109 104.716 74.0759 104.959C73.9379 105.202 73.7279 105.367 73.4399 105.451C73.1669 105.532 72.9209 105.52 72.6959 105.418C72.4709 105.316 72.3059 105.142 72.2039 104.899L72.1979 104.89Z" fill="#A2895B"/>
<path d="M0.800879 44.5066L0.842878 44.3266L2.99088 44.8366L2.95488 44.9956C1.53288 45.0376 0.542878 45.5146 0.251877 46.7446C-0.165123 48.5026 1.00187 49.3006 2.84388 49.7356L3.90588 49.9876C5.00988 50.2486 5.86488 50.3056 6.48589 50.1196C7.16689 49.9156 7.55989 49.4296 7.76989 48.5446C7.98289 47.6386 7.67989 46.9996 5.96389 46.5946L5.44789 46.4716L5.18988 47.5546L5.04288 47.5186L5.81389 44.2666L5.96088 44.3026L5.79888 44.9866L8.20788 45.5566L8.16289 45.7456C7.98589 45.7366 7.87789 45.8656 7.83889 46.0366C7.68889 46.6666 8.20789 47.3356 7.91389 48.5866C7.40689 50.7346 5.18088 52.0966 3.09888 51.6016C1.83588 51.3016 0.899877 50.4256 0.404876 49.3636C0.0148754 48.5266 -0.102123 47.5636 0.0928775 46.7326C0.275878 45.9646 0.869877 45.1936 0.944878 44.8786C0.992878 44.6776 0.950879 44.6146 0.800879 44.5006V44.5066Z" fill="#A2895B"/>
<path d="M9.30764 33.1639L9.35564 33.1909C9.82664 32.5999 10.1896 32.2069 10.4326 32.0539C10.6666 31.8979 10.9246 31.8049 11.2156 31.7929C11.5066 31.7809 11.9176 31.9069 12.6226 32.2429C13.2796 32.5519 13.7146 32.7049 13.9096 32.7499C14.1016 32.7799 14.2456 32.7229 14.3626 32.5039C14.5036 32.2489 14.4046 32.0208 14.3416 31.8018L14.4796 31.7539C14.6656 32.3119 14.5936 32.6058 14.3176 33.1068C14.0566 33.5808 13.7476 33.8779 13.3516 33.9949C12.9706 34.1059 12.4426 33.9889 11.7166 33.6049C10.9816 33.2149 10.4146 33.0528 10.0276 33.1098C9.64364 33.1578 9.34364 33.4128 9.13964 33.7818L8.77664 34.4449L12.2026 36.3199L12.6796 35.4469L12.8116 35.5189L11.1016 38.6389L10.9696 38.5669L11.4466 37.6939L4.95763 34.1419L4.48063 35.0149L4.34863 34.9429L5.18864 33.4068C5.37464 33.0648 5.70163 32.4048 5.95063 31.9488C6.71863 30.5448 7.81664 29.9118 8.86064 30.4848C9.68564 30.9378 9.84464 31.9099 9.30764 33.1579V33.1639ZM8.64164 34.3789L8.80664 34.0759C9.09164 33.5539 9.15464 33.2179 9.08564 32.9329C9.00464 32.6059 8.75864 32.3359 8.15264 32.0029C6.98563 31.3639 6.40063 31.4389 5.90263 32.3509C5.83963 32.4649 5.78563 32.6088 5.70763 32.7738L8.63864 34.3789H8.64164Z" fill="#A2895B"/>
<path d="M17.5699 16.7959L18.9049 18.0769L18.8089 18.1789C17.7589 17.6509 16.8199 17.8009 16.1989 18.4489L14.9779 19.7209L17.3899 22.0339L17.7259 21.6829C18.3259 21.0589 18.5809 20.4949 17.7739 19.3039L17.8699 19.2019L20.2969 21.5299L20.2009 21.6319C19.1389 20.9749 18.4909 21.1009 18.0049 21.6109L17.4949 22.1419L20.3119 24.8419L21.5689 23.5309C22.3459 22.7179 22.4209 21.5029 21.6229 20.2729L21.7189 20.1709L23.4289 21.8089L18.6469 26.7979L18.5389 26.6929L19.2259 25.9759L13.8859 20.8579L13.1959 21.5749L13.0879 21.4699L17.5639 16.8019L17.5699 16.7959Z" fill="#A2895B"/>
<path d="M30.5191 7.36719L31.4791 8.9482L31.3591 9.02019C30.4801 8.24019 29.5351 8.14419 28.7671 8.60919L27.2611 9.52417L28.9981 12.3802L29.4151 12.1282C30.1531 11.6782 30.5461 11.1982 30.0751 9.84219L30.1951 9.77019L31.9441 12.6442L31.8241 12.7162C30.9661 11.8072 30.3091 11.7652 29.7091 12.1312L29.0821 12.5152L31.1131 15.8512L32.6641 14.9062C33.6241 14.3212 34.0081 13.1632 33.5521 11.7712L33.6721 11.6992L34.9021 13.7212L28.9981 17.3152L28.9201 17.1862L29.7691 16.6702L25.9231 10.3522L25.0741 10.8682L24.9961 10.7392L30.5221 7.3762L30.5191 7.36719Z" fill="#A2895B"/>
<path d="M41.7236 2.72355L46.6106 6.67153L46.6316 6.66556L45.2456 1.86555L44.2886 2.14153L44.2466 1.99453L46.3256 1.39453L46.3676 1.53853L45.4106 1.81454L47.5016 9.06856L47.2226 9.14953L40.6256 3.83654L40.6046 3.84254L42.4826 10.3585L43.4396 10.0825L43.4816 10.2266L41.4026 10.8266L41.3606 10.6796L42.3176 10.4036L40.2656 3.29652L39.3086 3.57254L39.2666 3.42554L41.7206 2.71754L41.7236 2.72355Z" fill="#A2895B"/>
<path d="M58.7846 0.0300293V0.182996L57.7916 0.189002L57.8156 3.73503L60.9416 3.71401L60.9176 0.168018L59.9216 0.174024V0.0240235L63.4796 0V0.153003L62.4866 0.159009L62.5376 7.55703L63.5336 7.55102V7.70403L59.9756 7.72801V7.57501L60.9686 7.56904L60.9446 3.87001L57.8186 3.89103L57.8426 7.59003L58.8386 7.58402V7.73402L55.2806 7.75801V7.60801L56.2736 7.60204L56.2226 0.204016L55.2266 0.210022V0.0600221L58.7846 0.0359986V0.0300293Z" fill="#A2895B"/>
<path d="M78.7314 2.94801L78.2484 4.733L78.1134 4.697C78.0744 3.521 77.4924 2.77101 76.6284 2.53401L74.9274 2.072L74.0514 5.297L74.5224 5.42302C75.3564 5.64802 75.9744 5.60301 76.6344 4.325L76.7694 4.361L75.8874 7.60703L75.7524 7.57103C75.8214 6.32303 75.3984 5.816 74.7204 5.633L74.0094 5.441L72.9864 9.20902L74.7414 9.68601C75.8274 9.98001 76.9314 9.46103 77.6274 8.17103L77.7624 8.20703L77.1414 10.493L70.4724 8.68402L70.5114 8.53702L71.4714 8.79802L73.4064 1.658L72.4464 1.397L72.4854 1.25L78.7284 2.94201L78.7314 2.94801Z" fill="#A2895B"/>
<path d="M89.2535 11.5841L89.2266 11.6321C89.8056 12.1211 90.1895 12.4932 90.3335 12.7422C90.4835 12.9792 90.5676 13.2431 90.5736 13.5341C90.5796 13.8251 90.4416 14.2331 90.0876 14.9261C89.7606 15.5741 89.5956 16.0031 89.5446 16.1981C89.5086 16.3901 89.5625 16.5342 89.7755 16.6602C90.0275 16.8072 90.2555 16.7142 90.4775 16.6602L90.5225 16.7981C89.9585 16.9691 89.6675 16.8882 89.1725 16.6002C88.7045 16.3272 88.4165 16.0092 88.3115 15.6102C88.2095 15.2262 88.3415 14.7011 88.7465 13.9841C89.1575 13.2581 89.3345 12.7001 89.2865 12.3071C89.2475 11.9231 89.0015 11.6141 88.6385 11.4011L87.9845 11.0202L86.0165 14.3922L86.8745 14.8932L86.7995 15.0252L83.7275 13.2312L83.8025 13.0992L84.6605 13.6002L88.3895 7.21014L87.5315 6.70913L87.6065 6.57715L89.1185 7.45913C89.4545 7.65413 90.1056 7.99915 90.5556 8.26015C91.9386 9.06715 92.5385 10.1831 91.9385 11.2091C91.4645 12.0221 90.4865 12.1511 89.2535 11.5841ZM88.0565 10.8851L88.3565 11.0591C88.8695 11.3591 89.2055 11.4281 89.4905 11.3711C89.8205 11.2991 90.0965 11.0621 90.4475 10.4651C91.1195 9.31614 91.0596 8.73117 90.1626 8.20617C90.0516 8.14017 89.9075 8.08315 89.7455 7.99915L88.0595 10.8851H88.0565Z" fill="#A2895B"/>
<path d="M103.505 17.9443L103.709 18.1513L100.493 26.0833L101.144 26.7463L101.036 26.8513L98.4887 24.2593L98.5967 24.1543L99.3017 24.8713L100.49 21.9463L98.6717 20.0954L95.7617 21.2683L96.4367 21.9553L96.3287 22.0603L94.8887 20.5933L94.9967 20.4883L95.6417 21.1454L103.502 17.9443H103.505ZM98.8217 20.0263L100.565 21.8023L101.777 18.8233L98.8217 20.0293V20.0263Z" fill="#A2895B"/>
<path d="M113.285 31.4291L113.153 31.5041L112.664 30.6371L106.217 34.2642L107.108 35.8481C107.378 36.3281 107.801 36.6611 108.365 36.8292C108.935 37.0032 109.568 36.9822 110.249 36.7602L110.318 36.8832L108.188 38.0802L104.828 32.1041L104.96 32.0291L105.449 32.8961L111.896 29.2692L111.407 28.4021L111.539 28.3271L113.282 31.4291H113.285Z" fill="#A2895B"/>
<path d="M113.374 50.832C112.459 50.142 111.883 48.969 111.631 47.9399C111.508 47.4359 111.394 46.9289 111.283 46.4219C111.145 45.8099 110.992 45.189 110.845 44.58L110.992 44.544L111.229 45.51L118.414 43.755L118.177 42.7889L118.324 42.7529L118.594 43.8569C118.624 43.9829 119.008 45.414 119.104 45.813C119.779 48.576 119.011 50.766 116.47 51.387C115.168 51.705 114.151 51.42 113.374 50.829V50.832ZM111.601 47.0339L111.682 47.505C112.153 49.437 113.311 50.346 115.96 49.7009C118.534 49.0709 119.521 48.15 118.969 45.882C118.921 45.6809 118.858 45.4739 118.789 45.2789L111.604 47.0339H111.601Z" fill="#A2895B"/>
<path d="M6.08111 83.6438L5.0941 81.2558L3.75011 81.2318L3.3811 80.3408L9.15611 80.5418L9.45311 81.2618L5.50811 85.4888L5.1421 84.6038L6.08111 83.6438ZM6.64211 83.0678L8.35211 81.3068L5.89811 81.2678L6.64211 83.0648V83.0678Z" fill="#A2895B"/>
<path d="M13.1066 88.4326L13.6286 89.2366L9.8726 91.6726L11.2166 93.7486L10.5596 94.1746L8.6936 91.2946L13.1096 88.4326H13.1066Z" fill="#A2895B"/>
<path d="M15.2969 99.3974C15.3149 98.8694 15.5849 98.3624 16.1099 97.8704L18.4019 95.7344L19.0439 96.4244L16.7159 98.5964C16.3859 98.9054 16.2059 99.2174 16.1789 99.5324C16.1519 99.8474 16.2839 100.159 16.5719 100.465C16.8509 100.765 17.1509 100.915 17.4719 100.909C17.7929 100.906 18.1169 100.75 18.4439 100.444L20.7719 98.2724L21.4139 98.9623L19.1219 101.098C18.5999 101.584 18.0719 101.818 17.5439 101.8C17.0129 101.779 16.5029 101.509 16.0139 100.984C15.5189 100.453 15.2789 99.9224 15.2939 99.3974H15.2969Z" fill="#A2895B"/>
<path d="M30.1894 106.05L27.1294 110.329L26.4424 109.836L28.3414 107.181L25.2994 109.021L24.7864 108.655L25.5184 105.208L23.6404 107.833L22.9534 107.341L26.0134 103.062L26.6284 103.503L25.7134 107.908L29.5744 105.61L30.1894 106.05Z" fill="#A2895B"/>
<path d="M39.6546 110.912L37.5156 115.718L36.8646 115.427L35.7576 110.9L34.2576 114.269L33.4446 113.906L35.5836 109.1L36.2346 109.391L37.3356 113.909L38.8326 110.546L39.6546 110.912Z" fill="#A2895B"/>
<path d="M45.6376 112.849L46.5646 113.089L45.2446 118.18L44.3176 117.94L45.6376 112.849Z" fill="#A2895B"/>
<path d="M62.6193 114.695L62.6733 119.954L61.9593 119.96L59.0703 116.303L59.1093 119.99L58.2183 119.999L58.1643 114.737L58.8783 114.731L61.7583 118.382L61.7223 114.704L62.6193 114.695Z" fill="#A2895B"/>
<path d="M68.8118 113.999L72.2798 113.312L72.4268 114.05L69.8768 114.555L70.1588 115.982L72.5558 115.508L72.7028 116.246L70.3058 116.721L70.6058 118.235L73.1558 117.732L73.3028 118.469L69.8348 119.157L68.8118 113.996V113.999Z" fill="#A2895B"/>
<path d="M79.4637 111.896L77.8617 112.526L77.5767 111.797L81.6897 110.183L81.9747 110.912L80.3637 111.545L81.9987 115.712L81.1017 116.066L79.4667 111.899L79.4637 111.896Z" fill="#A2895B"/>
<path d="M93.1935 103.404L94.5675 108.816L93.9195 109.251L90.7095 106.848L91.6965 110.739L91.0485 111.174L86.5725 107.841L87.3795 107.301L90.6615 109.824L89.6205 105.801L90.1875 105.42L93.5025 107.958L92.4255 103.923L93.1905 103.41L93.1935 103.404Z" fill="#A2895B"/>
<path d="M101.67 102.383C101.25 102.506 100.821 102.5 100.386 102.368C99.9514 102.236 99.5344 101.981 99.1354 101.6C98.7394 101.222 98.4664 100.82 98.3134 100.391C98.1604 99.965 98.1334 99.539 98.2414 99.113C98.3464 98.69 98.5774 98.291 98.9314 97.919C99.2854 97.547 99.6724 97.298 100.092 97.175C100.509 97.052 100.935 97.055 101.367 97.193C101.799 97.328 102.213 97.586 102.609 97.964C103.008 98.345 103.284 98.75 103.437 99.176C103.59 99.602 103.617 100.028 103.515 100.451C103.413 100.874 103.185 101.273 102.831 101.645C102.48 102.014 102.093 102.26 101.673 102.383H101.67ZM102.705 99.947C102.651 99.518 102.399 99.089 101.946 98.657C101.496 98.228 101.058 97.997 100.629 97.964C100.2 97.931 99.8164 98.093 99.4774 98.447C99.1384 98.801 98.9944 99.191 99.0454 99.617C99.0964 100.043 99.3484 100.469 99.7984 100.901C100.251 101.333 100.692 101.567 101.121 101.6C101.55 101.636 101.937 101.474 102.273 101.12C102.612 100.766 102.753 100.373 102.699 99.947H102.705Z" fill="#A2895B"/>
<path d="M111.16 90.5268L110.62 91.3788L108.781 91.0098C108.613 90.9738 108.466 90.9888 108.346 91.0608C108.226 91.1328 108.112 91.2498 108.007 91.4178L107.494 92.2278L109.339 93.4008L108.829 94.2018L104.389 91.3818L105.604 89.4708C105.925 88.9638 106.279 88.6518 106.666 88.5288C107.053 88.4058 107.452 88.4748 107.866 88.7358C108.16 88.9248 108.361 89.1618 108.469 89.4468C108.574 89.7348 108.58 90.0498 108.484 90.3948C108.706 90.1668 109.009 90.0918 109.396 90.1728L111.163 90.5298L111.16 90.5268ZM107.5 90.8328C107.695 90.5268 107.782 90.2658 107.761 90.0498C107.743 89.8308 107.617 89.6508 107.389 89.5068C107.164 89.3628 106.951 89.3298 106.75 89.4048C106.549 89.4798 106.348 89.6718 106.153 89.9808L105.511 90.9888L106.858 91.8438L107.5 90.8358V90.8328Z" fill="#A2895B"/>
<path d="M115.531 81.1631L112.339 82.5431L114.628 83.4491L114.274 84.3401L109.384 82.4051L109.735 81.5141L111.928 82.3811L110.605 79.3181L111.028 78.2471L112.432 81.5651L115.963 80.0711L115.531 81.1631Z" fill="#A2895B"/>
<path d="M77.8961 20.9363C77.9231 19.5683 76.6091 18.6144 75.2681 18.7794C75.2231 19.8654 74.6591 22.8473 72.7751 24.0503C70.6181 25.4303 68.7401 24.1794 68.9801 23.3214C69.2681 22.3014 70.4951 22.4424 71.0951 22.8294C71.5031 22.0314 70.7471 20.9904 69.7511 20.8014C70.3601 19.9613 70.1771 18.7463 69.3881 17.9393C68.2961 18.2183 67.5071 19.1603 67.5911 20.1953C66.7241 19.8743 65.4971 20.2433 65.3891 21.2333C65.6501 21.1733 67.0331 21.5603 66.5861 22.8113C66.1361 24.0683 63.7301 23.7143 63.0881 22.0883C62.8361 21.3203 63.0581 18.9324 65.6081 19.7244C66.0941 17.7204 64.2881 16.0793 62.6981 16.2263C62.9021 14.4083 61.3661 12.7913 59.7461 12.2003C59.6801 12.1793 59.6681 12.1553 59.5781 12.2003C57.9611 12.7913 56.4251 14.4083 56.6261 16.2263C55.0361 16.0793 53.2301 17.7174 53.7161 19.7244C56.2661 18.9324 56.4881 21.3203 56.2361 22.0883C55.5941 23.7143 53.1881 24.0683 52.7381 22.8113C52.2941 21.5603 53.6741 21.1733 53.9351 21.2333C53.8271 20.2433 52.6001 19.8743 51.7331 20.1953C51.8171 19.1633 51.0311 18.2213 49.9361 17.9393C49.1471 18.7463 48.9611 19.9613 49.5731 20.8014C48.5771 20.9904 47.8181 22.0284 48.2291 22.8294C48.8291 22.4424 50.0561 22.3014 50.3441 23.3214C50.5841 24.1794 48.7061 25.4303 46.5491 24.0503C44.6681 22.8473 44.1011 19.8654 44.0561 18.7794C42.7151 18.6144 41.4011 19.5713 41.4281 20.9363C40.0601 20.7263 38.7791 21.8393 38.7941 23.2283C41.8691 23.6423 44.8301 25.7303 45.8651 28.6613C46.2401 34.8714 62.9741 33.9113 68.0651 32.8883C70.9211 32.2673 73.2761 31.0674 73.4561 28.6613C74.4911 25.7333 77.4551 23.6423 80.5271 23.2283C80.5421 21.8363 79.2581 20.7263 77.8931 20.9363H77.8961ZM48.8531 29.6514C48.4751 29.2494 49.0451 28.6943 49.4441 29.0633C49.8281 29.4593 49.2491 30.0354 48.8531 29.6514ZM59.6651 32.5044C45.5321 32.3844 45.5321 28.7333 59.6651 28.6133C73.7951 28.7333 73.7951 32.3844 59.6651 32.5044ZM52.6001 28.0643C53.1431 28.0043 53.2541 28.8054 52.7081 28.8924C52.1621 28.9584 52.0541 28.1483 52.6001 28.0643ZM55.7441 28.1784C55.7321 27.6264 56.5271 27.5813 56.5751 28.1303C56.5931 28.6823 55.7891 28.7304 55.7441 28.1784ZM59.2481 28.0374C59.2541 27.4824 60.0611 27.4763 60.0851 28.0223C60.0791 28.5743 59.2721 28.5864 59.2481 28.0374ZM62.7551 28.1064C62.8091 27.5544 63.6101 27.6143 63.5891 28.1633C63.5321 28.7093 62.7341 28.6584 62.7551 28.1064ZM66.2621 28.4244C66.3551 27.8724 67.1531 27.9924 67.0901 28.5354C67.0031 29.0814 66.1991 28.9674 66.2621 28.4244ZM70.5671 29.5193C70.2761 30.1133 69.4511 29.5613 69.8861 29.0633C70.2011 28.7513 70.7471 29.1023 70.5671 29.5193ZM70.0901 28.5294C68.5511 28.0524 64.0841 27.4074 59.6681 27.3594C57.4601 27.3834 55.2401 27.5574 53.3771 27.7854C51.5141 28.0134 50.0141 28.2924 49.2431 28.5294C48.1271 28.8744 48.0341 27.7314 49.1681 27.4794C54.7181 26.0484 64.7111 26.0694 70.1621 27.4794C71.2961 27.7344 71.2031 28.8744 70.0871 28.5294H70.0901ZM74.1971 25.7273C71.6861 28.6853 67.8911 26.4893 67.5221 25.0673C67.5221 25.0673 66.0941 26.0753 63.8441 25.8803C61.6361 25.6883 60.0641 22.3733 59.6711 19.6523C59.3141 21.9473 58.0241 25.5473 55.4951 25.8803C53.2451 26.0783 51.8171 25.0673 51.8171 25.0673C51.4481 26.4893 47.6531 28.6853 45.1421 25.7273C44.5511 25.0313 42.2261 23.0213 39.9371 22.8893C40.0271 22.3133 40.7621 21.4644 41.9861 21.8574C41.9231 21.0534 42.2711 20.1354 43.4081 19.8294C43.3631 20.6544 44.0591 23.7024 46.9841 25.4214C47.5001 25.7214 49.6991 25.9554 50.7941 24.3294C51.3971 23.4324 50.6141 21.6833 49.1291 22.2383C49.0541 21.8693 49.5341 21.2694 50.4461 21.2244C49.8671 20.6514 49.5971 19.4123 50.1221 18.7553C50.6801 18.9143 51.3671 19.7513 51.3131 20.9753C51.9341 20.5973 52.7291 20.5943 53.1281 21.1613C51.3461 21.4523 51.9281 23.8554 53.4581 24.2934C58.0751 25.6134 58.2251 18.6143 55.0211 18.8903C55.0211 18.8903 55.3481 16.7934 57.5891 17.2104C57.5711 16.2654 57.8891 14.4023 59.6711 13.5623C61.4501 14.4023 61.7681 16.2654 61.7501 17.2104C63.9941 16.7904 64.3181 18.8903 64.3181 18.8903C61.1111 18.6143 61.2611 25.6134 65.8811 24.2934C67.4111 23.8554 67.9931 21.4523 66.2111 21.1613C66.6101 20.5943 67.4021 20.5943 68.0261 20.9753C67.9751 19.7513 68.6591 18.9143 69.2171 18.7553C69.7421 19.4123 69.4721 20.6484 68.8931 21.2244C69.8051 21.2694 70.2851 21.8693 70.2101 22.2383C68.7251 21.6833 67.9421 23.4294 68.5451 24.3294C69.6401 25.9554 71.8391 25.7214 72.3551 25.4214C75.2801 23.6994 75.9791 20.6544 75.9311 19.8294C77.0681 20.1354 77.4161 21.0534 77.3531 21.8574C78.5771 21.4674 79.3121 22.3133 79.4021 22.8893C77.1131 23.0213 74.7881 25.0313 74.1971 25.7273Z" fill="#A2895B"/>
<path d="M74.4986 77.2041C74.4836 76.4421 74.4656 75.6411 74.4476 74.8131C74.4476 74.6811 74.2436 74.0151 69.3416 73.8291C69.3026 76.9941 69.2425 79.6671 69.1855 81.6801C69.1855 81.7011 69.1855 81.7191 69.1855 81.7401C69.2665 81.6981 69.3775 81.6411 69.5125 81.5661C69.5125 81.5121 69.5125 81.4581 69.5155 81.4041C69.5155 81.3231 69.5185 81.2391 69.5215 81.1551H70.2355C70.7545 80.8431 71.3876 80.4321 72.0266 79.9401H69.5515C69.5575 79.6731 69.5635 79.4001 69.5695 79.1151H72.9956C73.3976 78.7401 73.7816 78.3321 74.1086 77.9001H69.5936C69.5996 77.6331 69.6056 77.3571 69.6116 77.0781H74.1686C74.1686 77.2131 74.1746 77.3451 74.1776 77.4741C74.1776 77.5821 74.1806 77.6901 74.1836 77.7981C74.2946 77.6481 74.3996 77.4951 74.4956 77.3391C74.4956 77.2941 74.4956 77.2521 74.4956 77.2071L74.4986 77.2041ZM69.6355 75.8601C69.6385 75.5871 69.6446 75.3141 69.6506 75.0321H74.1326C74.1386 75.3111 74.1446 75.5871 74.1506 75.8601H69.6355Z" fill="#A2895B"/>
<path d="M80.9236 87.3619C80.4976 86.9719 79.5346 86.4409 78.1426 87.1909C77.6626 87.5239 77.2906 88.0369 77.0926 88.6429L76.9186 89.1709C77.2456 88.8949 77.6266 88.5289 78.0886 88.5439C79.6426 88.5529 79.6606 90.6379 78.1246 90.6859C77.3746 90.6529 76.7026 90.3169 76.1326 89.6839C75.1636 88.6069 74.7136 86.9689 74.6596 85.5889C74.6086 85.6219 74.5546 85.6549 74.5006 85.6849C74.3056 85.7569 74.3506 85.8769 74.3716 86.0539H73.8616C73.0306 86.5159 72.1666 86.9209 71.2756 87.2689H74.5786C74.6476 87.5449 74.7316 87.8209 74.8336 88.0909H68.7166C68.5156 88.1479 68.3116 88.1929 68.1076 88.2409C68.0026 88.2649 67.9006 88.2859 67.7956 88.3099C67.1866 88.8139 66.3586 89.0599 65.3176 89.0659H65.1016L65.1646 89.2699C66.1246 92.5759 69.9886 91.7599 71.6986 89.3599C72.8056 91.4629 75.4666 93.1309 77.7676 93.1279C79.6066 93.1849 81.1036 92.3959 81.6406 90.9829C82.1386 89.7319 81.8266 88.1749 80.9206 87.3649L80.9236 87.3619ZM70.5136 90.1309H65.9206C65.7706 89.9119 65.6446 89.6629 65.5426 89.3779C65.7946 89.3689 66.0376 89.3449 66.2656 89.3059H71.3386C71.0956 89.6119 70.8166 89.8909 70.5106 90.1309H70.5136ZM72.6136 90.1309C72.3886 89.8609 72.1996 89.5849 72.0406 89.3059H75.4456C75.6376 89.6059 75.8656 89.8879 76.1236 90.1309H72.6106H72.6136ZM80.3056 92.1709H75.2206C74.7496 91.9429 74.2996 91.6609 73.8856 91.3489H81.0976C80.9206 91.6279 80.6686 91.9219 80.3056 92.1709ZM81.5326 90.1309H79.4836C79.5886 89.8669 79.6126 89.5819 79.5496 89.3059H81.5356C81.5716 89.5759 81.5716 89.8549 81.5356 90.1309H81.5326ZM77.7136 88.0909C77.9626 87.6979 78.3256 87.3949 78.7606 87.2689H80.1886C80.5726 87.4219 80.9026 87.7339 81.1216 88.0909H77.7166H77.7136Z" fill="#A2895B"/>
<path d="M68.7814 42.1037C68.7964 42.2477 68.8894 42.2477 69.0064 42.2747C69.1654 42.3137 69.3274 42.3587 69.4834 42.4037H74.4274C74.3824 42.6857 74.3524 42.9617 74.3434 43.2317H71.6914C72.4594 43.5917 73.2034 43.9967 73.9234 44.4467H74.3344C74.3344 44.5217 74.3314 44.6087 74.3284 44.7047C74.4364 44.7737 74.5414 44.8427 74.6434 44.9147C74.6554 44.3687 74.6644 44.0597 74.6644 44.0417C74.5324 42.1367 75.3274 38.9867 77.5384 38.3297H78.5944C79.0534 38.5097 79.2634 38.9297 79.2604 39.3227C79.2844 40.2017 78.1414 40.7417 77.3464 40.1087L76.9204 39.7547L77.0944 40.2827C77.2954 40.8947 77.6734 41.4167 78.1624 41.7437C80.9794 43.1777 82.4914 40.0847 81.6454 37.9457C81.0904 36.5357 79.6654 35.7557 77.7694 35.8007C75.6184 35.8007 73.1614 37.2527 71.9434 39.1547C71.6074 39.7307 71.7634 39.5657 71.3704 39.1547C69.5434 37.0667 66.0544 36.5747 65.1724 39.6587L65.1094 39.8657H65.3404C67.0924 39.8747 68.2564 40.5677 68.7874 42.1097L68.7814 42.1037ZM80.8444 41.1887H78.0004C77.8324 41.0177 77.6914 40.8197 77.5774 40.5977C77.7394 40.6577 77.9134 40.6937 78.0934 40.6967C78.5134 40.6967 78.8494 40.5677 79.0954 40.3637H81.3514C81.2314 40.6727 81.0634 40.9547 80.8474 41.1857L80.8444 41.1887ZM81.4354 38.3267C81.5134 38.5937 81.5524 38.8727 81.5554 39.1517H79.5694C79.5364 38.8487 79.4014 38.5517 79.1704 38.3267H81.4324H81.4354ZM76.4794 36.2867H79.2964C79.9474 36.4667 80.4094 36.7787 80.7334 37.1087H74.5654C75.1624 36.7427 75.8134 36.4517 76.4794 36.2867ZM73.0324 38.3267H76.7314C76.4344 38.5037 76.1554 38.7347 75.8944 39.0227C75.8554 39.0647 75.8224 39.1067 75.7864 39.1487H72.3364C72.5344 38.8667 72.7684 38.5907 73.0324 38.3237V38.3267ZM75.0304 40.3667C74.9074 40.6337 74.8024 40.9097 74.7124 41.1887H68.7094C68.5144 40.8677 68.2864 40.5977 68.0014 40.3667H75.0304ZM66.3304 38.3267H69.8224C70.2154 38.5457 70.5904 38.8247 70.9204 39.1517H65.7064C65.8744 38.8187 66.0814 38.5427 66.3304 38.3267Z" fill="#A2895B"/>
<path d="M85.8204 69.3C84.4794 69.3 82.8054 69.288 81.5394 69.294C81.9594 73.3201 76.8204 73.1311 77.3604 69.294H74.3394C73.6644 65.013 75.6174 53.874 73.5294 51.387H69.6024C69.5964 51.108 69.5904 50.832 69.5844 50.562H72.7764C72.3474 50.142 71.8554 49.734 71.3154 49.347H69.5604C69.5544 49.062 69.5454 48.789 69.5394 48.525H70.0404C69.7704 48.366 69.4884 48.213 69.2064 48.069C69.2904 51.324 69.3894 56.313 69.3714 61.587H51.8603C51.8483 56.802 51.9174 52.077 52.0494 47.313C58.8924 41.844 79.8864 46.869 74.7504 58.428C76.0434 59.988 77.1054 59.181 78.5784 58.743C81.6804 61.131 86.0814 59.799 87.9114 56.28C85.6644 57.987 83.2164 56.199 82.2414 53.688C84.0264 52.734 85.0494 50.391 84.3864 48.276C75.7434 52.335 71.8404 36.273 52.1634 43.737C52.3014 41.514 53.4923 39.993 55.9104 40.035H56.1264C55.4034 36.552 51.0653 37.329 49.5293 39.738C48.3353 37.596 45.9293 36.033 43.4603 35.97C37.3313 35.781 38.8013 44.082 43.0703 41.913C43.7573 41.475 44.0993 40.683 44.3093 39.927C44.3093 39.918 43.8833 40.281 43.8833 40.278C42.9353 41.088 41.4533 39.993 42.1223 38.922C42.8363 37.905 44.3693 38.574 45.0953 39.414C46.9553 41.535 46.5023 44.334 46.6253 47.013C43.9043 49.194 41.6993 52.038 40.3343 55.476C37.9343 54.603 35.4023 57.444 36.9653 59.574C36.0443 60.42 33.4313 64.584 31.4033 64.938C33.0293 64.995 35.8703 69.216 36.5273 69.684C37.4063 70.752 35.5133 71.991 37.3553 73.698C38.2643 74.577 39.6323 74.823 40.7093 74.22C42.0533 77.355 44.1143 80.0221 46.6193 82.1551C46.5293 85.0651 46.9583 88.8901 43.9133 90.3571C40.9943 91.3591 41.7713 87.267 43.8803 88.653C43.8803 88.653 44.3033 89.0101 44.3063 89.0071C42.8213 83.8741 37.2023 88.158 40.1363 91.728C42.7283 94.4281 47.8463 92.3401 49.4574 89.3131H49.6164C51.3624 91.6261 55.2414 92.4181 56.1204 88.8961C53.8884 89.0161 52.4723 87.7831 52.2174 85.7131C61.0914 89.9611 72.2724 88.3231 79.0794 81.087C80.2704 83.205 83.4594 84.06 85.4664 82.611C82.3254 80.649 80.6844 74.7 84.4314 72.549C86.6784 71.259 87.0264 73.008 86.8344 69.3C86.6064 69.303 86.2464 69.306 85.8114 69.306L85.8204 69.3ZM81.7464 58.749C83.0064 58.983 84.6864 58.788 85.6494 58.044C83.0394 59.916 81.1854 59.466 79.4184 58.113C80.1354 58.467 80.9574 58.626 81.7464 58.749ZM76.2084 52.761C78.9804 56.376 75.7104 58.176 75.7104 58.176C77.0694 56.988 76.8564 53.973 76.2054 52.758C76.2054 52.758 76.2054 52.761 76.2084 52.764V52.761ZM74.7204 72.939C75.0654 73.143 75.2994 73.452 75.4614 73.68C74.8344 72.975 73.7004 72.762 72.8334 72.816C72.8424 72.816 72.8544 72.813 72.8634 72.81C72.8514 72.81 72.8424 72.813 72.8334 72.816C73.4604 72.666 74.1504 72.6 74.7204 72.939ZM51.7583 46.485C51.7493 46.758 51.7434 47.022 51.7344 47.31H46.9643C46.9583 47.028 46.9553 46.761 46.9493 46.485H51.7583ZM46.9223 45.27C46.9133 44.997 46.9073 44.706 46.9013 44.445H51.8274C51.8184 44.679 51.8094 45.012 51.7973 45.27H46.9223ZM47.0033 79.9381C47.0063 79.6651 47.0123 79.3891 47.0183 79.1131H51.6713C51.6773 79.3891 51.6834 79.6651 51.6894 79.9381H47.0033ZM51.7224 81.153C51.7284 81.426 51.7374 81.717 51.7434 81.975H46.9583C46.9643 81.702 46.9703 81.438 46.9793 81.153H51.7254H51.7224ZM47.0453 77.898C47.0513 77.628 47.0573 77.355 47.0633 77.076H51.6294C51.6354 77.352 51.6413 77.628 51.6474 77.898H47.0453ZM47.0903 75.861C47.0933 75.588 47.0993 75.3091 47.1053 75.0331H51.5934C51.5964 75.3091 51.6053 75.588 51.6083 75.861H47.0873H47.0903ZM47.1293 73.821C47.1353 73.548 47.1413 73.272 47.1473 72.999H51.5723C51.5723 73.275 51.5784 73.545 51.5814 73.821H47.1293ZM47.1713 71.781C47.1773 71.508 47.1803 71.232 47.1863 70.956H51.5544C51.5544 71.232 51.5573 71.505 51.5603 71.781H47.1713ZM47.2103 69.741C47.2133 69.468 47.2193 69.195 47.2253 68.919H51.5454C51.5454 69.186 51.5454 69.474 51.5454 69.741H47.2073H47.2103ZM51.5454 67.701H47.2463C47.2493 67.428 47.2553 67.152 47.2613 66.879H51.5484C51.5484 67.152 51.5484 67.428 51.5484 67.701H51.5454ZM47.2523 61.584C47.2493 61.308 47.2433 61.035 47.2403 60.759H51.5454C51.5454 61.032 51.5454 61.308 51.5454 61.584H47.2493H47.2523ZM47.2163 59.544C47.2103 59.271 47.2073 58.995 47.2013 58.722H51.5484C51.5484 58.995 51.5484 59.271 51.5484 59.544H47.2163ZM47.1773 57.504C47.1713 57.228 47.1683 56.955 47.1593 56.679H51.5634C51.5604 56.952 51.5574 57.228 51.5574 57.504H47.1773ZM47.1383 55.464C47.1293 55.188 47.1263 54.915 47.1203 54.639H51.5844C51.5844 54.915 51.5784 55.188 51.5754 55.464H47.1383ZM47.0963 53.424C47.0903 53.145 47.0843 52.872 47.0783 52.602H51.6173C51.6143 52.878 51.6084 53.148 51.6054 53.424H47.0963ZM47.0543 51.384C47.0483 51.102 47.0423 50.835 47.0363 50.559H51.6564C51.6504 50.832 51.6474 51.108 51.6414 51.384H47.0543ZM47.0093 49.344C47.0033 49.071 46.9973 48.792 46.9913 48.522H51.7013C51.6953 48.798 51.6894 49.062 51.6804 49.344H47.0063H47.0093ZM51.7824 83.187C51.7914 83.526 51.8034 83.802 51.8094 84.012H46.9103C46.9163 83.742 46.9223 83.463 46.9283 83.187H51.7794H51.7824ZM51.8544 85.2271C51.8784 85.5061 51.9144 85.7821 51.9684 86.0521H46.8533C46.8833 85.7791 46.9043 85.4971 46.9073 85.2271H51.8513H51.8544ZM47.2793 65.661C47.2853 65.385 47.2913 65.109 47.2943 64.833H73.9494C73.9524 65.106 73.9584 65.382 73.9644 65.661H47.2793ZM73.9854 66.876C73.9914 67.149 73.9944 67.425 74.0004 67.698H69.7014C69.7014 67.425 69.7014 67.149 69.7014 66.876H73.9884H73.9854ZM74.0844 56.679C74.0814 56.952 74.0754 57.228 74.0694 57.504H69.6954C69.6954 57.225 69.6924 56.952 69.6864 56.679H74.0844ZM69.6744 55.464C69.6744 55.185 69.6684 54.912 69.6654 54.639H74.1234C74.1174 54.912 74.1144 55.185 74.1084 55.464H69.6744ZM74.0484 58.719C74.0424 58.992 74.0364 59.265 74.0334 59.541H69.7044C69.7044 59.265 69.7044 58.992 69.7044 58.719H74.0514H74.0484ZM69.7044 60.759H74.0094C74.0034 61.032 74.0004 61.308 73.9944 61.584H69.7014C69.7014 61.308 69.7014 61.032 69.7014 60.759H69.7044ZM69.7044 68.916H74.0244C74.0244 69.042 74.0274 69.168 74.0304 69.294H69.7044C69.7044 69.168 69.7044 69.042 69.7044 68.916ZM74.1654 52.602C74.1594 52.872 74.1534 53.145 74.1474 53.424H69.6474C69.6444 53.145 69.6384 52.872 69.6324 52.602H74.1654ZM73.9734 62.799C73.9704 63.072 73.9644 63.348 73.9584 63.621H47.2853C47.2793 63.348 47.2763 63.072 47.2703 62.799H73.9704H73.9734ZM52.0434 42.552C51.9834 42.774 51.9413 42.999 51.9083 43.23H46.8893C46.8653 42.954 46.8353 42.678 46.7843 42.402H52.0824C52.0704 42.453 52.0524 42.501 52.0434 42.552ZM52.0824 46.284C54.6114 44.895 57.4854 44.247 60.3714 44.265C63.4224 44.28 66.4404 45.171 69.1734 46.503C69.1704 46.503 69.1674 46.5 69.1644 46.497C70.2924 47.049 70.9344 47.49 70.9344 47.49C65.2374 43.803 56.6694 43.935 52.0884 46.821C52.0824 46.737 52.0824 46.479 52.0824 46.479M51.0833 38.7C51.4823 38.097 54.1044 38.376 54.6864 38.322C54.9984 38.529 55.2534 38.814 55.4424 39.147H50.5074C50.6904 38.985 50.8823 38.835 51.0833 38.703V38.7ZM41.9933 40.371C42.3893 40.842 43.1033 40.977 43.6673 40.767C43.5893 40.914 43.4993 41.055 43.3943 41.184H40.2563C40.0643 40.941 39.9293 40.656 39.8363 40.362C39.8483 40.371 41.9933 40.344 41.9933 40.371ZM42.1733 38.4C41.9363 38.586 41.7713 38.853 41.6993 39.144H39.6923C39.7103 38.862 39.7673 38.583 39.8603 38.319H42.2813C42.2423 38.343 42.2063 38.37 42.1703 38.397L42.1733 38.4ZM40.6943 37.104C42.2963 35.826 44.6963 36.156 46.3853 37.104H40.6943ZM44.1743 38.319H48.0353C48.3053 38.574 48.5543 38.85 48.7793 39.144H45.3023C44.9843 38.799 44.6033 38.505 44.1743 38.319ZM46.4723 41.181C46.3733 40.899 46.2623 40.626 46.1273 40.359H49.4873C49.4633 40.359 53.4564 40.359 53.4684 40.359C53.1444 40.581 52.8654 40.86 52.6434 41.181H46.4723ZM46.7603 51.987C46.7603 51.987 46.7543 51.993 46.7483 52.002C45.1913 54.171 44.4863 56.43 43.5953 60.141C43.5383 60.051 43.9973 57.012 44.5043 55.854C44.9993 54.483 45.8423 52.554 46.7393 51.396M37.8923 64.812C37.4933 63.009 38.6693 61.737 40.0553 62.421C39.4583 62.127 40.2383 60.564 41.2523 60.768C41.1413 60.747 41.2403 60.783 41.3543 60.75C40.1243 61.089 39.9803 62.415 40.0553 62.421C38.4953 62.304 37.7123 63.66 37.8923 64.827C37.8923 64.821 37.8923 64.815 37.8923 64.809V64.812ZM43.7723 66.933C43.1783 68.772 40.2113 68.079 40.5743 66.081C38.1653 66.756 37.6163 62.58 40.4723 62.994C40.5503 62.994 40.5863 62.949 40.5503 62.745C40.5053 60.933 43.1333 60.453 43.7453 62.094C44.1413 58.605 45.1733 55.431 46.7663 52.791C46.9853 60.156 46.9943 68.505 46.7693 75.882C45.1553 73.332 44.0753 70.311 43.7723 66.936V66.933ZM40.0493 88.0441C40.2173 87.7381 40.4513 87.4501 40.7453 87.2581H42.8873C43.2053 87.4531 43.4573 87.7561 43.6373 88.0801C43.1783 88.0381 40.6163 88.1041 40.0313 88.0801C40.0373 88.0651 40.0433 88.0531 40.0523 88.0411L40.0493 88.0441ZM39.7403 90.1231C39.6863 89.8531 39.6743 89.5741 39.6923 89.2981H41.6663C41.6393 89.5801 41.7023 89.8771 41.8433 90.1231H39.7403ZM46.9463 91.461C46.1183 92.514 42.3413 92.0941 41.2163 92.1631C40.8413 91.9591 40.5083 91.6801 40.2623 91.3411H47.1203C47.0633 91.3831 47.0063 91.422 46.9463 91.461ZM48.4853 90.1231H44.9243C45.2033 89.8951 45.4673 89.5951 45.6803 89.2981C45.6803 89.2981 49.1033 89.2951 49.1003 89.2981C48.9203 89.5861 48.7103 89.862 48.4853 90.12V90.1231ZM55.6614 89.2981C55.5474 89.5951 55.3974 89.8801 55.1934 90.1231H50.9543C50.6243 89.8891 50.3154 89.6101 50.0484 89.2981H55.6614ZM52.3704 87.2581C52.5234 87.5641 52.7034 87.8341 52.9314 88.0801H46.3403C46.4483 87.8101 46.5383 87.5371 46.6193 87.2581H52.3734H52.3704ZM72.1674 85.2181C66.4704 88.4521 58.4514 87.9541 53.6364 85.2181C60.7314 88.3561 68.7534 87.2221 74.8914 83.3191C74.0124 83.9401 73.1154 84.7231 72.1674 85.2181ZM74.6064 78.723C70.9014 83.556 59.3814 87.4681 52.0494 81.387C51.9203 76.581 51.8514 71.769 51.8664 66.951H60.6204H69.3774C69.3804 67.731 69.3834 68.505 69.3774 69.282H65.4564C65.1834 73.098 66.2694 72.7441 69.5154 72.9331C71.3634 73.0801 73.4094 73.215 74.4264 73.593C76.2294 74.931 76.1034 77.043 74.6034 78.723H74.6064ZM66.9264 72.375C65.3994 72.045 66.0624 70.569 65.9274 69.726C65.9274 69.729 65.9274 69.732 65.9274 69.738V69.726C65.8854 70.794 66.3804 71.766 66.9264 72.375ZM82.3074 79.923C81.1224 79.221 80.1714 77.8681 81.5634 75.1831C81.5634 75.1831 81.5634 75.183 81.5634 75.186C81.5634 75.186 81.5634 75.1861 81.5634 75.1831C81.5634 75.1831 81.0774 78.054 82.3074 79.923Z" fill="#A2895B"/>
<path d="M36.7983 99.8131C38.0463 100.569 39.3303 101.262 40.6473 101.895V102.555C39.1833 101.865 37.7553 101.097 36.3723 100.254C36.0333 100.92 35.2023 101.658 33.9333 101.964C33.7293 102.006 33.5133 102.036 33.2943 102.051C32.7603 102.087 32.2023 102.033 31.6803 101.895C31.0863 101.754 30.6663 101.472 30.4233 101.265C30.5643 100.986 30.8403 100.692 31.2093 100.44C31.6893 100.104 32.3313 99.8491 33.1773 99.6541C33.4593 99.5941 33.7473 99.5521 34.0263 99.5341C34.4883 99.4981 34.9263 99.5192 35.3283 99.5972C34.0323 98.7602 32.7633 97.8451 31.5633 96.8761C31.4073 97.1071 31.1793 97.3321 30.9003 97.5211C30.3753 97.8811 29.7273 98.1061 29.0793 98.1601C29.0283 98.1631 28.9833 98.1662 28.9323 98.1692C27.9933 98.2202 27.2043 97.9831 26.7063 97.7791C26.2383 97.5541 25.8243 97.2632 25.5513 96.9692C25.9023 96.4802 26.8083 95.9851 28.0683 95.8771C28.1943 95.8681 28.3233 95.8591 28.4523 95.8561C29.4243 95.7991 30.1683 95.9671 30.6573 96.1381C29.4723 95.1361 28.3293 94.0681 27.2523 92.9521C26.8863 93.3361 26.2113 93.7021 25.3263 93.7831C25.0533 93.8102 24.7743 93.8071 24.4923 93.7741C24.1053 93.7351 23.7153 93.6512 23.3313 93.5221C22.9533 93.3961 22.6233 93.2371 22.3593 93.0541C21.9153 92.7631 21.5343 92.4151 21.3003 92.0911C21.6213 91.7581 22.2633 91.5121 23.0193 91.4341C23.4333 91.3921 23.8713 91.4011 24.3183 91.4611C24.7383 91.5241 25.1283 91.5991 25.4613 91.6891C25.8003 91.7851 26.1183 91.9051 26.4063 92.0461C25.3683 90.9151 24.3783 89.7121 23.4573 88.4701C23.2473 88.6261 22.9803 88.7551 22.6803 88.8391C22.5153 88.8841 22.3413 88.9171 22.1583 88.9381C21.6783 88.9891 21.1683 88.9471 20.6403 88.8151C20.2593 88.7191 19.8843 88.5781 19.5183 88.3921C19.1733 88.2211 18.8853 87.9931 18.6183 87.7711C18.2223 87.4261 17.8863 87.0391 17.6913 86.6881C17.9223 86.5141 18.2883 86.3911 18.7263 86.3401C19.3413 86.2681 20.0493 86.3401 20.7723 86.5501C21.1473 86.6521 21.4743 86.7931 21.8613 86.9611C22.1643 87.0931 22.4403 87.2401 22.6893 87.4051C21.8223 86.1601 21.0093 84.8611 20.2773 83.5501C20.0673 83.6581 19.8153 83.7301 19.5303 83.7661C19.0893 83.8201 18.3753 83.8051 17.4723 83.4301C17.0763 83.2651 16.7223 83.0671 16.4163 82.8511C16.1253 82.6291 15.8523 82.3771 15.6063 82.1011C15.2493 81.7051 14.9643 81.2731 14.8143 80.9041C14.9553 80.8321 15.1383 80.7781 15.3513 80.7481C16.0593 80.6551 16.9833 80.8351 17.8983 81.2491C18.2583 81.4111 18.5973 81.6031 18.9093 81.8161C19.1313 81.9601 19.3983 82.1431 19.6323 82.3411C18.9453 81.0151 18.3123 79.6321 17.7513 78.2251C17.6613 78.2521 17.5593 78.2761 17.4543 78.2941C16.7313 78.3961 15.8313 78.1681 14.9883 77.6671C14.3403 77.2951 13.7673 76.7611 13.2873 76.0801C12.9783 75.6541 12.7533 75.1891 12.6603 74.7901C12.7263 74.7691 12.7983 74.7511 12.8763 74.7391C13.1163 74.7001 13.4103 74.7181 13.7253 74.7811C14.3133 74.8981 14.9883 75.1861 15.6783 75.6121C16.2933 76.0141 16.8333 76.4671 17.2623 76.9381C16.7523 75.5221 16.3053 74.0851 15.9453 72.6511C15.3243 72.7471 14.2893 72.5371 13.2363 71.6761C12.8973 71.4001 12.6033 71.1061 12.3573 70.8001C12.1263 70.5031 11.9163 70.1791 11.7393 69.8431C11.5653 69.5131 11.4393 69.2101 11.3613 68.9401C11.3163 68.7751 11.2863 68.6161 11.2713 68.4721C11.5473 68.4241 11.9283 68.4811 12.3363 68.6311C12.6213 68.7361 12.9153 68.8801 13.2123 69.0631C13.5453 69.2611 13.8693 69.4951 14.1813 69.7561C14.4963 70.0201 14.7813 70.3051 15.0363 70.6021C15.2943 70.8961 15.4923 71.1481 15.6423 71.3761C15.4923 70.7071 15.3543 70.0141 15.2283 69.3061C15.0873 68.4961 14.9673 67.6831 14.8683 66.8851C14.8683 66.8761 14.8683 66.8701 14.8653 66.8641C14.1963 66.8791 13.1553 66.4741 12.2313 65.4721C11.9283 65.1451 11.6703 64.8091 11.4633 64.4701C11.2653 64.1371 11.0973 63.7861 10.9623 63.4261C10.7643 62.9161 10.6593 62.4031 10.6653 61.9981C10.9473 61.9981 11.3193 62.1121 11.7123 62.3281C12.2643 62.6341 12.8523 63.1201 13.4163 63.7381C13.6953 64.0471 13.9473 64.3741 14.1633 64.7071C14.4123 65.0821 14.5863 65.3791 14.7123 65.6461C14.7213 65.6671 14.7303 65.6881 14.7393 65.7091C14.6133 64.3981 14.5443 63.0451 14.5323 61.6891V61.4971C14.5323 61.3711 14.5323 61.2421 14.5323 61.1191V61.0291C13.8363 60.9661 12.8133 60.3661 12.0063 59.2201C11.4123 58.4011 11.1273 57.5581 10.9923 56.9911C10.8573 56.4631 10.8183 55.9351 10.8723 55.5271C11.1573 55.5721 11.5113 55.7431 11.8803 56.0251C12.3873 56.4061 12.9153 56.9851 13.4073 57.6961C13.8513 58.3501 14.2113 59.0581 14.4693 59.8021C14.4753 59.8231 14.4843 59.8531 14.4903 59.8801C14.4963 59.9071 14.5053 59.9341 14.5113 59.9611L14.5533 59.9551C14.5533 59.9401 14.5533 59.9221 14.5533 59.9041C14.5983 58.4131 14.7243 56.8861 14.9283 55.3651C14.9373 55.3051 14.9463 55.2421 14.9553 55.1821C14.2623 55.0501 13.2603 54.2731 12.5613 52.9561C11.7573 51.4591 11.6853 49.8811 11.8863 49.0981C12.4983 49.2961 13.4133 50.1781 14.1603 51.6631C14.5743 52.4971 14.8623 53.3431 14.9853 54.1051H15.1113C15.1113 54.1051 15.1143 54.0841 15.1203 54.0691C15.3573 52.6141 15.6693 51.1531 16.0473 49.7371C16.0683 49.6531 16.0923 49.5631 16.1163 49.4761C15.8073 49.3921 15.4503 49.1611 15.1083 48.8161C14.7693 48.4711 14.2803 47.8471 13.8963 46.8391C13.5993 46.0891 13.4553 45.2731 13.4493 44.3371C13.4493 43.8001 13.5453 43.2751 13.7013 42.8821C14.2953 43.1791 15.1053 44.2081 15.6633 45.8101C15.9813 46.7131 16.1613 47.6041 16.1883 48.3841L16.4163 48.4291C16.4163 48.4291 16.4193 48.4111 16.4253 48.4021C16.8573 46.9591 17.3643 45.5251 17.9343 44.1391C17.9523 44.0941 17.9673 44.0551 17.9853 44.0131L17.9553 43.9291C17.3133 43.6681 16.4373 42.6151 16.0203 40.914C15.8223 40.104 15.7773 39.2341 15.8883 38.3341C15.9693 37.7851 16.1283 37.2721 16.3263 36.9151C16.8843 37.3111 17.5833 38.4991 17.9313 40.1701C18.1233 41.0071 18.1953 41.8411 18.1533 42.6481C18.1533 42.6871 18.1503 42.717 18.1443 42.75C18.1413 42.783 18.1383 42.8131 18.1353 42.8431L18.4413 42.9511C18.4413 42.9511 18.4503 42.9301 18.4563 42.9181C19.0713 41.5381 19.7583 40.1821 20.4933 38.892C20.4993 38.883 20.5023 38.8771 20.5083 38.8651L20.4693 38.6881C19.8603 38.3221 19.1073 37.1191 18.9003 35.3371C18.7863 34.251 18.9423 33.3121 19.0953 32.7181C19.2573 32.1691 19.4823 31.68 19.7223 31.359C20.2383 31.851 20.7903 33.1621 20.9253 34.9051C21.0093 35.8141 20.9793 36.684 20.8293 37.425C20.8203 37.476 20.8143 37.509 20.8053 37.545C20.7963 37.575 20.7903 37.6051 20.7843 37.6351L21.1263 37.8211C21.1263 37.8211 21.1353 37.806 21.1383 37.8C21.9273 36.501 22.7853 35.2351 23.6883 34.0351C23.6943 34.0261 23.7003 34.02 23.7093 34.011L23.6913 33.8131C23.1243 33.3391 22.5243 32.0041 22.5453 30.1741C22.5723 29.2651 22.7673 28.335 23.0853 27.57C23.3223 27.039 23.6163 26.577 23.9013 26.292C24.3573 26.877 24.7443 28.296 24.6513 30.078C24.6063 31.053 24.4593 31.923 24.2253 32.595C24.2103 32.643 24.1983 32.673 24.1863 32.706C24.1743 32.733 24.1653 32.7631 24.1533 32.7931L24.4683 33.0301C25.4313 31.8181 26.4783 30.633 27.5733 29.514C27.6303 29.457 27.6843 29.4061 27.7383 29.3491C27.7953 29.0551 27.9033 28.728 28.0623 28.392C28.3713 27.741 28.9023 27.081 29.5983 26.478C30.1473 26.031 30.7623 25.6981 31.3683 25.5271C32.0253 25.3381 32.5353 25.371 32.8593 25.479C32.6883 26.31 31.9623 27.5311 30.7743 28.4881C30.2133 28.9681 29.5713 29.3311 28.8543 29.5771C28.7913 29.5981 28.7313 29.616 28.6683 29.634C28.5063 29.679 28.3533 29.7061 28.2063 29.7211C28.1373 29.7901 28.0653 29.859 27.9963 29.931C26.9133 31.038 25.8813 32.2051 24.9273 33.4021C24.9033 33.4321 24.8823 33.459 24.8583 33.489L24.9153 33.5821C24.9363 33.5671 24.9603 33.5551 24.9813 33.5431C24.9963 33.5341 25.0083 33.5251 25.0263 33.5161C25.2303 33.4261 25.4523 33.3421 25.6803 33.2851C26.1363 33.1621 26.6043 33.117 27.0753 33.153C28.5723 33.279 29.5953 34.08 30.0273 34.698C29.8383 34.89 29.5443 35.058 29.1873 35.175C29.0613 35.22 28.9413 35.259 28.8153 35.292C28.3173 35.421 27.7773 35.4661 27.2073 35.4271C25.8453 35.3701 24.7143 34.869 24.1983 34.359C24.1893 34.371 24.1773 34.383 24.1713 34.395C23.2803 35.58 22.4313 36.8281 21.6543 38.1091C21.6363 38.1391 21.6183 38.1721 21.6003 38.1991L21.6483 38.2591L21.6843 38.2321C21.6993 38.2171 21.7173 38.2051 21.7353 38.1931C22.1013 37.9441 22.5453 37.7431 23.0193 37.6231C23.2353 37.5661 23.4543 37.527 23.6763 37.506C25.1463 37.392 26.2443 38.0041 26.7393 38.5381C26.5803 38.7541 26.3133 38.9641 25.9803 39.1351C25.6683 39.3181 25.3113 39.4561 24.9033 39.5581C24.6483 39.6241 24.3723 39.6721 24.0873 39.7021C22.7673 39.8641 21.6123 39.561 21.0393 39.153C21.0303 39.168 21.0243 39.1801 21.0153 39.1951C20.2893 40.4701 19.6113 41.8051 19.0053 43.1701C18.9903 43.2001 18.9783 43.2331 18.9633 43.2601L19.0413 43.3351L19.0743 43.3021C19.0893 43.2841 19.1073 43.2631 19.1253 43.2451C19.5753 42.8101 20.2173 42.4591 20.9283 42.264C22.3443 41.916 23.4873 42.3391 24.0363 42.7831C23.9103 43.0111 23.6763 43.2631 23.3703 43.4911C22.9383 43.8421 22.3293 44.1361 21.6003 44.3431C21.5133 44.3701 21.4263 44.3941 21.3393 44.4121C20.2653 44.6671 19.1463 44.6041 18.5313 44.2651C18.5193 44.2981 18.5043 44.3281 18.4923 44.361C17.9313 45.7291 17.4303 47.1451 17.0043 48.5671C17.0013 48.5881 16.9953 48.6061 16.9893 48.6241L17.1393 48.7261C17.5593 48.1531 18.1623 47.6761 18.8433 47.3821C19.0773 47.2801 19.3233 47.1991 19.5663 47.1451C20.5563 46.9141 21.4233 47.0881 21.9363 47.3911C21.7113 47.9641 20.9913 48.7411 19.7613 49.3111C19.3713 49.4941 18.9693 49.6321 18.5673 49.7221C18.3003 49.7821 18.0393 49.8181 17.7903 49.8361C17.3583 49.8631 16.9683 49.8091 16.6863 49.6861C16.6683 49.7521 16.6473 49.8181 16.6323 49.8841C16.2573 51.2851 15.9513 52.7221 15.7173 54.1621C15.7173 54.1741 15.7143 54.1831 15.7113 54.1951L15.9483 54.3121C16.2873 53.6731 16.8183 53.1001 17.4483 52.7041C17.8683 52.4371 18.3153 52.2511 18.7803 52.1491C19.4943 51.9931 20.0913 52.0801 20.4663 52.2271C20.3193 52.8241 19.7103 53.7031 18.5853 54.4561C17.9643 54.8671 17.2863 55.1641 16.6773 55.2901C16.2363 55.3831 15.8403 55.3831 15.5613 55.2901L15.5463 55.3021C15.5403 55.3471 15.5313 55.3891 15.5253 55.4341C15.3243 56.9341 15.2013 58.4401 15.1563 59.9101L15.4743 60.0121L15.4893 59.9701C15.5013 59.9431 15.5103 59.9131 15.5223 59.8831C15.7533 59.2771 16.1883 58.6771 16.7433 58.1911C17.3913 57.6121 18.0573 57.3691 18.5043 57.2701L18.5763 57.2551C18.9603 57.1771 19.3323 57.1711 19.6263 57.2401C19.5993 57.4441 19.5183 57.7531 19.3053 58.1851C19.0383 58.6951 18.6123 59.2351 18.0693 59.7421C17.3163 60.4231 16.4793 60.8911 15.7803 61.0261C15.5703 61.0651 15.3843 61.0741 15.2253 61.0471L15.1323 61.1461C15.1323 61.2601 15.1323 61.3741 15.1323 61.4911V61.6831C15.1473 63.0241 15.2163 64.3621 15.3393 65.6611L15.7323 65.7211C15.7383 65.6941 15.7443 65.6641 15.7473 65.6401C15.7503 65.6191 15.7563 65.5981 15.7623 65.5771C15.8553 65.2201 15.9723 64.9141 16.1133 64.6381C16.2933 64.3051 16.5033 63.9871 16.7463 63.7021C17.3133 63.0211 17.9313 62.6761 18.3483 62.5111C18.5463 62.4331 18.7413 62.3731 18.9333 62.3371C19.1163 62.3011 19.2903 62.2891 19.4463 62.2981C19.4463 62.5651 19.3803 62.9071 19.2543 63.2821C19.1583 63.5491 19.0233 63.8311 18.8583 64.1131C18.6543 64.4641 18.4623 64.7521 18.2433 65.0161C17.4633 65.9641 16.5393 66.6271 15.8313 66.7501C15.7563 66.7651 15.6843 66.7711 15.6183 66.7711L15.4863 66.9541C15.5793 67.6981 15.6903 68.4511 15.8223 69.1981C15.9543 69.9361 16.1013 70.6651 16.2603 71.3671H16.7043C16.7073 71.3341 16.7073 71.3101 16.7103 71.2831C16.7103 71.2591 16.7103 71.2381 16.7163 71.2141C16.7613 70.8451 16.8363 70.5241 16.9413 70.2241C17.0733 69.8641 17.2413 69.5161 17.4423 69.1921C17.6403 68.8681 17.8683 68.5771 18.1173 68.3281C18.3483 68.1031 18.6033 67.9051 18.8643 67.7461C19.1793 67.5541 19.5033 67.4281 19.7913 67.3771C19.8333 67.3681 19.8723 67.3651 19.9113 67.3621C19.9203 67.4401 19.9263 67.5241 19.9233 67.6171C19.9233 67.8721 19.8993 68.1211 19.8483 68.3671C19.7853 68.6551 19.6923 68.9581 19.5633 69.2671C19.4133 69.6421 19.2543 69.9661 19.0773 70.2631C18.2493 71.6371 17.2983 72.3421 16.7223 72.4321L16.5843 72.7021C16.9503 74.1151 17.3913 75.5341 17.8983 76.9231L18.3663 76.8361C18.3363 76.2931 18.3903 75.4531 18.8103 74.5291C19.1733 73.6891 19.6713 73.1551 20.0283 72.8551C20.3613 72.5761 20.7033 72.3871 21.0123 72.3061C21.0633 72.5101 21.1053 72.8311 21.0753 73.3291C21.0333 73.9021 20.8533 74.6041 20.5593 75.3481C19.9773 76.7671 19.0863 77.6971 18.5103 77.8831L18.3963 78.2041C18.9513 79.5811 19.5753 80.9371 20.2563 82.2361L20.7003 82.0771C20.6943 82.0471 20.6883 82.0171 20.6823 81.9901C20.6763 81.9571 20.6673 81.9211 20.6643 81.8881C20.6133 81.4981 20.6013 81.1681 20.6253 80.8501C20.6643 80.4571 20.7393 80.0611 20.8503 79.6771C21.2883 78.1831 22.1463 77.3701 22.7313 77.1121C22.8423 77.3581 22.9143 77.7061 22.9293 78.1081C22.9413 78.4111 22.9233 78.7411 22.8753 79.0861C22.8243 79.5241 22.7613 79.8811 22.6683 80.2171C22.2663 81.7411 21.5073 82.8181 20.9613 83.0971L20.8923 83.4241C21.6063 84.6931 22.3953 85.9501 23.2413 87.1561L23.6433 86.9341C23.6253 86.8741 23.6073 86.8141 23.5923 86.7541C23.5053 86.4211 23.4453 86.0701 23.4183 85.7041C23.3973 85.3711 23.4183 84.9661 23.4873 84.4981C23.7303 82.9291 24.4773 81.9721 25.0203 81.6181C25.1583 81.8491 25.2723 82.1851 25.3353 82.5871C25.3863 82.8721 25.3983 83.2111 25.4133 83.5681V83.5921C25.4283 83.9611 25.4073 84.3481 25.3563 84.7471C25.2543 85.5271 25.0413 86.3011 24.7563 86.9161C24.5403 87.3871 24.2913 87.7351 24.0423 87.9211L24.0213 88.2301C24.9003 89.4121 25.8483 90.5581 26.8353 91.6411L26.8593 91.5991L27.1923 91.3501L27.1773 91.3111C27.1623 91.2781 27.1503 91.2481 27.1383 91.2181C27.0093 90.8911 26.9073 90.5401 26.8353 90.1741C26.7513 89.7631 26.7213 89.3671 26.7333 88.9651C26.7783 87.3271 27.3903 86.2411 27.8763 85.7971C28.0413 86.0101 28.1913 86.3341 28.3083 86.7301C28.3893 87.0271 28.4703 87.3631 28.5303 87.7201C28.5903 88.0921 28.6203 88.4911 28.6203 88.9051C28.6113 90.4201 28.2573 91.7911 27.7473 92.3161L27.7653 92.6281C28.7913 93.6901 29.8743 94.7041 30.9873 95.6461L31.0113 95.5891C31.0113 95.5891 30.9963 95.5741 30.9873 95.5681L31.2783 95.2651C30.8943 94.6051 30.6213 93.7741 30.5133 92.9251C30.3483 91.2691 30.8103 90.0721 31.2363 89.5411C31.4253 89.7331 31.6173 90.0391 31.7793 90.4231L31.7883 90.4441C32.0703 91.0201 32.2743 91.7551 32.3793 92.5711C32.4873 93.4741 32.4873 94.2691 32.3883 94.9291C32.3103 95.4661 32.1603 95.9101 31.9743 96.1711L32.0373 96.5041C33.1983 97.4311 34.4133 98.3071 35.6613 99.1141L35.6883 99.0001C35.6673 98.9881 35.6463 98.9731 35.6253 98.9611L35.8743 98.6041C35.8593 98.5831 35.8413 98.5652 35.8263 98.5472C35.8203 98.5382 35.8143 98.5321 35.8083 98.5261C35.3793 97.9201 35.0283 97.1461 34.8243 96.3541C34.5633 95.3731 34.6323 94.4731 34.6983 94.0201C34.7703 93.5371 34.9083 93.1111 35.0823 92.8141C35.3583 93.0391 35.6523 93.4712 35.7633 93.6331C36.1143 94.1702 36.4113 94.8931 36.6183 95.7121C37.0983 97.4371 36.9933 98.8441 36.6933 99.4261L36.8193 99.8131L36.7923 99.8222L36.7983 99.8131Z" fill="#A2895B"/>
<path d="M104.108 69.3023C103.982 70.0073 103.841 70.7033 103.694 71.3723C103.847 71.1443 104.045 70.8923 104.303 70.5983C104.558 70.3013 104.846 70.0163 105.158 69.7523C105.47 69.4913 105.794 69.2573 106.127 69.0593C106.424 68.8763 106.718 68.7323 107.003 68.6273C107.411 68.4773 107.792 68.4203 108.071 68.4683C108.053 68.6123 108.023 68.7713 107.978 68.9363C107.9 69.2033 107.774 69.5093 107.6 69.8393C107.423 70.1753 107.216 70.4993 106.982 70.7963C106.736 71.1023 106.439 71.3963 106.103 71.6723C105.053 72.5333 104.018 72.7403 103.397 72.6473C103.034 74.0813 102.587 75.5213 102.08 76.9343C102.506 76.4633 103.049 76.0073 103.664 75.6083C104.354 75.1823 105.029 74.8943 105.614 74.7773C105.932 74.7143 106.226 74.6993 106.463 74.7353C106.541 74.7473 106.616 74.7653 106.679 74.7863C106.583 75.1883 106.358 75.6533 106.052 76.0763C105.572 76.7573 105.002 77.2913 104.351 77.6633C103.508 78.1613 102.611 78.3893 101.885 78.2903C101.78 78.2753 101.681 78.2513 101.588 78.2213C101.03 79.6253 100.397 81.0083 99.7099 82.3373C99.9439 82.1393 100.211 81.9593 100.43 81.8123C100.742 81.5993 101.084 81.4103 101.444 81.2453C102.356 80.8313 103.283 80.6513 103.988 80.7443C104.201 80.7743 104.384 80.8283 104.525 80.9003C104.375 81.2693 104.093 81.6983 103.733 82.0973C103.487 82.3703 103.211 82.6253 102.92 82.8473C102.617 83.0663 102.263 83.2613 101.864 83.4263C100.961 83.8013 100.247 83.8163 99.8059 83.7623C99.5239 83.7263 99.2689 83.6543 99.0589 83.5463C98.3269 84.8603 97.5169 86.1563 96.6469 87.4013C96.8959 87.2393 97.1719 87.0893 97.4749 86.9573C97.8649 86.7893 98.1889 86.6483 98.5639 86.5463C99.2899 86.3363 99.9979 86.2673 100.613 86.3363C101.051 86.3873 101.414 86.5103 101.645 86.6843C101.45 87.0353 101.12 87.4223 100.718 87.7673C100.454 87.9893 100.163 88.2173 99.8179 88.3883C99.4519 88.5743 99.0739 88.7153 98.6959 88.8113C98.1679 88.9433 97.6579 88.9853 97.1749 88.9343C96.9949 88.9133 96.8179 88.8803 96.6559 88.8353C96.3529 88.7513 96.0859 88.6223 95.8759 88.4663C94.9579 89.7083 93.9679 90.9113 92.9299 92.0423C93.2149 91.9013 93.5329 91.7813 93.8719 91.6853C94.2109 91.5953 94.5949 91.5173 95.0149 91.4573C95.4649 91.3973 95.8999 91.3883 96.3169 91.4303C97.0729 91.5053 97.7149 91.7543 98.0359 92.0873C97.7989 92.4113 97.4209 92.7563 96.9739 93.0503C96.7099 93.2333 96.3829 93.3893 96.0049 93.5183C95.6209 93.6473 95.2309 93.7343 94.8439 93.7703C94.5619 93.8033 94.2829 93.8033 94.0099 93.7793C93.1249 93.6983 92.4529 93.3353 92.0839 92.9453C91.0039 94.0673 89.8609 95.1383 88.6819 96.1343C89.1709 95.9633 89.9149 95.7953 90.8869 95.8523C91.0129 95.8523 91.1419 95.8613 91.2709 95.8733C92.5339 95.9813 93.4399 96.4763 93.7879 96.9653C93.5149 97.2593 93.1009 97.5503 92.6329 97.7753C92.1349 97.9823 91.3459 98.2163 90.4069 98.1653C90.3559 98.1653 90.3079 98.1623 90.2599 98.1563C89.6089 98.1053 88.9639 97.8773 88.4389 97.5173C88.1599 97.3253 87.9349 97.1033 87.7759 96.8723C86.5729 97.8413 85.3069 98.7533 84.0109 99.5933C84.4129 99.5153 84.8479 99.4943 85.3129 99.5303C85.5919 99.5513 85.8799 99.5933 86.1619 99.6503C87.0079 99.8423 87.6499 100.1 88.1299 100.436C88.4989 100.688 88.7749 100.979 88.9189 101.261C88.6759 101.468 88.2559 101.75 87.6619 101.891C87.1399 102.029 86.5819 102.083 86.0479 102.047C85.8259 102.032 85.6099 102.002 85.4089 101.96C84.1399 101.654 83.3059 100.916 82.9699 100.25C81.3709 101.225 79.7119 102.101 78.0049 102.872V102.215C79.5619 101.501 81.0799 100.694 82.5439 99.8093L82.5169 99.8003L82.6399 99.4133C82.3429 98.8343 82.2379 97.4243 82.7149 95.6993C82.9249 94.8803 83.2249 94.1603 83.5699 93.6203C83.6809 93.4583 83.9779 93.0263 84.2509 92.8013C84.4249 93.0983 84.5629 93.5243 84.6349 94.0073C84.7009 94.4573 84.7729 95.3573 84.5089 96.3413C84.3049 97.1333 83.9539 97.9073 83.5279 98.5133C83.5219 98.5223 83.5159 98.5283 83.5099 98.5343C83.4919 98.5523 83.4769 98.5733 83.4589 98.5913L83.7079 98.9483C83.6869 98.9633 83.6659 98.9753 83.6449 98.9873L83.6719 99.1013C84.9199 98.2973 86.1379 97.4183 87.2989 96.4913L87.3619 96.1583C87.1759 95.8973 87.0289 95.4563 86.9479 94.9163C86.8459 94.2563 86.8519 93.4613 86.9569 92.5583C87.0589 91.7423 87.2659 91.0073 87.5479 90.4313L87.5569 90.4103C87.7189 90.0263 87.9109 89.7203 88.0999 89.5283C88.5259 90.0593 88.9879 91.2563 88.8259 92.9123C88.7149 93.7613 88.4419 94.5923 88.0579 95.2523L88.3519 95.5553C88.3519 95.5553 88.3369 95.5673 88.3279 95.5763L88.3489 95.6333C89.4649 94.6913 90.5449 93.6773 91.5739 92.6153L91.5919 92.3033C91.0789 91.7783 90.7309 90.4073 90.7189 88.8923C90.7189 88.4783 90.7519 88.0793 90.8089 87.7073C90.8659 87.3503 90.9499 87.0173 91.0309 86.7173C91.1449 86.3243 91.2979 85.9973 91.4629 85.7843C91.9549 86.2283 92.5639 87.3173 92.6059 88.9523C92.6209 89.3543 92.5879 89.7503 92.5039 90.1613C92.4319 90.5273 92.3299 90.8783 92.2009 91.2053C92.1889 91.2383 92.1739 91.2683 92.1619 91.2983L92.1439 91.3373L92.4769 91.5863L92.5009 91.6283C93.4909 90.5453 94.4359 89.3993 95.3149 88.2173L95.2939 87.9083C95.0449 87.7223 94.7989 87.3743 94.5799 86.9033C94.2949 86.2883 94.0819 85.5143 93.9829 84.7343C93.9319 84.3353 93.9109 83.9483 93.9229 83.5793V83.5553C93.9379 83.1983 93.9499 82.8593 94.0039 82.5743C94.0699 82.1723 94.1809 81.8363 94.3189 81.6053C94.8619 81.9593 95.6059 82.9133 95.8519 84.4853C95.9209 84.9533 95.9449 85.3583 95.9209 85.6913C95.8939 86.0543 95.8369 86.4083 95.7499 86.7413C95.7319 86.8043 95.7139 86.8613 95.6959 86.9213L96.0979 87.1433C96.9439 85.9343 97.7299 84.6803 98.4469 83.4113L98.3779 83.0843C97.8349 82.8053 97.0729 81.7283 96.6709 80.2043C96.5809 79.8683 96.5149 79.5113 96.4639 79.0733C96.4189 78.7283 96.4009 78.3983 96.4129 78.0953C96.4279 77.6933 96.4969 77.3453 96.6109 77.0993C97.1959 77.3573 98.0539 78.1703 98.4919 79.6643C98.6029 80.0483 98.6779 80.4443 98.7169 80.8373C98.7439 81.1553 98.7319 81.4883 98.6809 81.8753C98.6749 81.9113 98.6689 81.9443 98.6599 81.9773C98.6539 82.0043 98.6479 82.0343 98.6419 82.0643L99.0859 82.2233C99.7669 80.9273 100.388 79.5683 100.946 78.1913L100.832 77.8703C100.253 77.6843 99.3649 76.7543 98.7799 75.3353C98.4859 74.5913 98.3059 73.8893 98.2639 73.3163C98.2339 72.8183 98.2759 72.4943 98.3299 72.2933C98.6359 72.3743 98.9809 72.5663 99.3109 72.8423C99.6679 73.1423 100.166 73.6733 100.529 74.5163C100.949 75.4403 101.003 76.2803 100.973 76.8233L101.444 76.9103C101.951 75.5183 102.392 74.1023 102.758 72.6893L102.62 72.4193C102.044 72.3293 101.09 71.6213 100.265 70.2503C100.085 69.9533 99.9259 69.6263 99.7789 69.2543C99.6499 68.9453 99.5539 68.6423 99.4939 68.3543C99.4429 68.1113 99.4159 67.8623 99.4189 67.6043C99.4189 67.5143 99.4219 67.4273 99.4339 67.3493C99.4729 67.3523 99.5119 67.3583 99.5539 67.3643C99.8449 67.4153 100.166 67.5413 100.484 67.7333C100.745 67.8923 100.997 68.0903 101.228 68.3153C101.477 68.5643 101.705 68.8553 101.903 69.1793C102.104 69.5033 102.272 69.8513 102.404 70.2113C102.512 70.5113 102.584 70.8353 102.632 71.2013C102.632 71.2253 102.635 71.2463 102.635 71.2703C102.635 71.2973 102.638 71.3243 102.641 71.3543H103.085C103.241 70.6583 103.388 69.9263 103.523 69.1853C103.655 68.4353 103.766 67.6823 103.859 66.9413L103.73 66.7583C103.661 66.7583 103.592 66.7523 103.514 66.7373C102.806 66.6143 101.882 65.9513 101.102 65.0033C100.886 64.7363 100.691 64.4513 100.487 64.1003C100.319 63.8183 100.184 63.5363 100.091 63.2693C99.9649 62.8943 99.8989 62.5493 99.8989 62.2853C100.055 62.2763 100.229 62.2853 100.415 62.3243C100.604 62.3603 100.799 62.4173 100.997 62.4983C101.417 62.6663 102.035 63.0083 102.602 63.6893C102.842 63.9743 103.055 64.2923 103.232 64.6253C103.376 64.9013 103.49 65.2103 103.586 65.5643C103.589 65.5853 103.595 65.6063 103.598 65.6273C103.604 65.6543 103.607 65.6813 103.613 65.7083L104.006 65.6483C104.132 64.3523 104.201 63.0113 104.213 61.6673V61.1363L104.117 61.0373C103.961 61.0643 103.772 61.0552 103.562 61.0163C102.863 60.8812 102.029 60.4133 101.273 59.7323C100.733 59.2283 100.304 58.6883 100.037 58.1753C99.8209 57.7433 99.7399 57.4342 99.7159 57.2302C100.013 57.1612 100.382 57.1673 100.766 57.2453L100.838 57.2603C101.285 57.3593 101.954 57.6023 102.599 58.1813C103.154 58.6673 103.586 59.2673 103.82 59.8733C103.832 59.9033 103.844 59.9333 103.853 59.9603L103.868 60.0022L104.186 59.9003C104.141 58.4303 104.018 56.9242 103.817 55.4272C103.811 55.3822 103.805 55.3373 103.799 55.2953L103.784 55.2832C103.505 55.3732 103.109 55.3732 102.668 55.2832C102.059 55.1572 101.384 54.8603 100.763 54.4493C99.6349 53.6963 99.0289 52.8173 98.8819 52.2203C99.2569 52.0733 99.8539 51.9893 100.568 52.1423C101.03 52.2443 101.477 52.4302 101.9 52.6972C102.527 53.0932 103.061 53.6662 103.4 54.3052L103.634 54.1882C103.634 54.1882 103.634 54.1672 103.631 54.1552C103.394 52.7182 103.088 51.2782 102.716 49.8772C102.698 49.8112 102.68 49.7453 102.662 49.6793C102.377 49.8023 101.993 49.8563 101.558 49.8293C101.309 49.8143 101.045 49.7753 100.781 49.7153C100.376 49.6253 99.9739 49.4873 99.5869 49.3043C98.3569 48.7343 97.6369 47.9572 97.4119 47.3842C97.9219 47.0812 98.7919 46.9072 99.7789 47.1382C100.022 47.1952 100.268 47.2762 100.505 47.3752C101.183 47.6692 101.789 48.1492 102.206 48.7192L102.356 48.6172C102.35 48.5992 102.347 48.5812 102.341 48.5632C101.915 47.1382 101.414 45.7253 100.853 44.3573C100.838 44.3243 100.826 44.2942 100.814 44.2612C100.196 44.6002 99.0769 44.6632 98.0059 44.4082C97.9189 44.3872 97.8319 44.3632 97.7419 44.3392C97.0159 44.1322 96.4039 43.8382 95.9749 43.4872C95.6689 43.2562 95.4379 43.0072 95.3059 42.7792C95.8579 42.3352 97.0039 41.9123 98.4139 42.2603C99.1249 42.4553 99.7639 42.8032 100.217 43.2412C100.235 43.2592 100.253 43.2802 100.271 43.2982L100.301 43.3312L100.382 43.2562C100.367 43.2232 100.355 43.1932 100.343 43.1632C99.7339 41.8012 99.0559 40.4632 98.3299 39.1882C98.3209 39.1732 98.3149 39.1612 98.3059 39.1462C97.7329 39.5542 96.5779 39.8572 95.2579 39.6952C94.9759 39.6652 94.6999 39.6172 94.4419 39.5512C94.0339 39.4492 93.6769 39.3112 93.3649 39.1282C93.0319 38.9542 92.7679 38.7442 92.6059 38.5312C93.1039 38.0002 94.1989 37.3882 95.6719 37.4992C95.8939 37.5202 96.1159 37.5622 96.3289 37.6162C96.7999 37.7362 97.2469 37.9372 97.6099 38.1862C97.6279 38.1982 97.6429 38.2132 97.6609 38.2252L97.6969 38.2522L97.7449 38.1952C97.7269 38.1652 97.7059 38.1322 97.6879 38.1052C96.9109 36.8212 96.0649 35.5732 95.1739 34.3912C95.1649 34.3792 95.1529 34.3642 95.1469 34.3522C94.6279 34.8622 93.4969 35.3662 92.1349 35.4202C91.5649 35.4592 91.0219 35.4142 90.5269 35.2852C90.4039 35.2522 90.2809 35.2132 90.1579 35.1682C89.7979 35.0512 89.5039 34.8832 89.3179 34.6912C89.7439 34.0732 90.7699 33.2752 92.2699 33.1462C92.7379 33.1132 93.2089 33.1552 93.6619 33.2782C93.8899 33.3382 94.1149 33.4192 94.3159 33.5092C94.3309 33.5182 94.3459 33.5272 94.3609 33.5362C94.3819 33.5512 94.4029 33.5632 94.4239 33.5752L94.4809 33.4822C94.4599 33.4552 94.4359 33.4252 94.4119 33.3952C93.4549 32.1982 92.4259 31.0282 91.3429 29.9242C91.2739 29.8522 91.2049 29.7862 91.1329 29.7142C90.9859 29.6992 90.8329 29.6692 90.6709 29.6272C90.6109 29.6122 90.5479 29.5912 90.4849 29.5702C89.7709 29.3242 89.1259 28.9612 88.5679 28.4812C87.3769 27.5242 86.6539 26.3002 86.4829 25.4722C86.8039 25.3642 87.3169 25.3312 87.9739 25.5202C88.5799 25.6942 89.1949 26.0242 89.7439 26.4712C90.4399 27.0742 90.9709 27.7342 91.2799 28.3852C91.4419 28.7212 91.5469 29.0482 91.6039 29.3422C91.6579 29.3992 91.7149 29.4502 91.7689 29.5072C92.8639 30.6262 93.9109 31.8112 94.8769 33.0232L95.1919 32.7862C95.1829 32.7532 95.1709 32.7262 95.1589 32.6992C95.1439 32.6662 95.1319 32.6362 95.1199 32.5882C94.8829 31.9162 94.7359 31.0462 94.6939 30.0712C94.6009 28.2892 94.9879 26.8672 95.4439 26.2852C95.7289 26.5702 96.0229 27.0292 96.2599 27.5632C96.5809 28.3312 96.7729 29.2582 96.7999 30.1672C96.8209 31.9942 96.2209 33.3322 95.6539 33.8062L95.6389 34.0042C95.6389 34.0042 95.6539 34.0222 95.6599 34.0312C96.5629 35.2282 97.4209 36.4942 98.2099 37.7932C98.2129 37.7992 98.2189 37.8082 98.2219 37.8142L98.5639 37.6282C98.5579 37.5982 98.5489 37.5682 98.5429 37.5382C98.5339 37.5022 98.5249 37.4692 98.5159 37.4182C98.3689 36.6772 98.3359 35.8102 98.4199 34.8982C98.5519 33.1552 99.1069 31.8472 99.6229 31.3522C99.8629 31.6732 100.091 32.1622 100.25 32.7112C100.403 33.3052 100.559 34.2442 100.445 35.3302C100.235 37.1122 99.4879 38.3152 98.8759 38.6812L98.8369 38.8582C98.8369 38.8582 98.8459 38.8732 98.8519 38.8852C99.5869 40.1753 100.274 41.5342 100.892 42.9112C100.895 42.9202 100.901 42.9322 100.904 42.9442L101.21 42.8362C101.21 42.8032 101.204 42.7733 101.201 42.7432C101.201 42.7103 101.195 42.6802 101.192 42.6412C101.147 41.8342 101.222 41.0032 101.414 40.1632C101.762 38.4892 102.461 37.3042 103.019 36.9082C103.22 37.2652 103.379 37.7752 103.457 38.3272C103.568 39.2302 103.523 40.0972 103.325 40.9072C102.908 42.6083 102.032 43.6642 101.393 43.9222L101.363 44.0062C101.378 44.0482 101.396 44.0873 101.414 44.1323C101.984 45.5183 102.494 46.9522 102.923 48.3952C102.926 48.4042 102.929 48.4132 102.932 48.4222L103.157 48.3772C103.184 47.5972 103.364 46.7062 103.682 45.8032C104.243 44.2012 105.05 43.1692 105.644 42.8752C105.803 43.2652 105.893 43.7902 105.896 44.3302C105.893 45.2662 105.746 46.0823 105.452 46.8323C105.065 47.8403 104.579 48.4643 104.237 48.8092C103.895 49.1543 103.541 49.3852 103.229 49.4692C103.253 49.5562 103.277 49.6432 103.301 49.7302C103.679 51.1492 103.991 52.6073 104.228 54.0623C104.228 54.0773 104.231 54.0893 104.234 54.1013H104.363C104.483 53.3333 104.771 52.4903 105.185 51.6563C105.935 50.1712 106.85 49.2892 107.459 49.0912C107.663 49.8742 107.588 51.4493 106.784 52.9493C106.088 54.2663 105.083 55.0432 104.393 55.1753C104.402 55.2383 104.411 55.2982 104.417 55.3582C104.621 56.8792 104.747 58.4062 104.792 59.8973V59.9453L104.837 59.9513C104.846 59.9243 104.852 59.8943 104.858 59.8703C104.864 59.8433 104.873 59.8133 104.879 59.7923C105.134 59.0483 105.494 58.3403 105.938 57.6863C106.43 56.9753 106.958 56.3963 107.465 56.0153C107.834 55.7363 108.191 55.5623 108.473 55.5173C108.53 55.9253 108.488 56.4533 108.353 56.9813C108.218 57.5483 107.933 58.3913 107.339 59.2103C106.532 60.3533 105.509 60.9563 104.813 61.0193C104.813 61.0523 104.813 61.0823 104.813 61.1123V61.6793C104.801 63.0413 104.729 64.3913 104.603 65.6993C104.612 65.6783 104.618 65.6603 104.63 65.6363C104.756 65.3693 104.93 65.0693 105.179 64.6973C105.398 64.3643 105.65 64.0373 105.929 63.7283C106.49 63.1103 107.078 62.6243 107.63 62.3183C108.023 62.1023 108.395 61.9852 108.68 61.9882C108.683 62.3932 108.578 62.9093 108.38 63.4163C108.245 63.7763 108.077 64.1273 107.882 64.4603C107.675 64.7993 107.417 65.1383 107.114 65.4623C106.19 66.4613 105.152 66.8693 104.48 66.8543C104.48 66.8633 104.48 66.8693 104.48 66.8783C104.384 67.6733 104.261 68.4863 104.117 69.2993L104.108 69.3023Z" fill="#A2895B"/>
<path d="M2.67992 66.5717C3.97392 66.5717 5.02292 65.5228 5.02292 64.2288C5.02292 62.9348 3.97392 61.8857 2.67992 61.8857C1.38591 61.8857 0.336914 62.9348 0.336914 64.2288C0.336914 65.5228 1.38591 66.5717 2.67992 66.5717Z" fill="#A2895B"/>
<path d="M116.663 66.5717C117.957 66.5717 119.006 65.5228 119.006 64.2288C119.006 62.9348 117.957 61.8857 116.663 61.8857C115.369 61.8857 114.32 62.9348 114.32 64.2288C114.32 65.5228 115.369 66.5717 116.663 66.5717Z" fill="#A2895B"/>
</svg>
