<svg width="28" height="20" viewBox="0 0 28 20" fill="none" xmlns="http://www.w3.org/2000/svg">
<g clip-path="url(#clip0_951_30813)">
<path d="M25.6 20H2.4C1.072 20 0 18.928 0 17.6V2.4C0 1.072 1.072 0 2.4 0H25.6C26.928 0 28 1.072 28 2.4V17.6C28 18.928 26.928 20 25.6 20Z" fill="#F8F8F8"/>
<path d="M25.6 0.8C26.48 0.8 27.2 1.52 27.2 2.4V17.6C27.2 18.48 26.48 19.2 25.6 19.2H2.4C1.52 19.2 0.8 18.48 0.8 17.6V2.4C0.8 1.52 1.52 0.8 2.4 0.8H25.6ZM25.6 0H2.4C1.072 0 0 1.072 0 2.4V17.6C0 18.928 1.072 20 2.4 20H25.6C26.928 20 28 18.928 28 17.6V2.4C28 1.072 26.928 0 25.6 0Z" fill="#E7E7E7"/>
<path d="M22.0687 10.0011C22.0687 12.7622 19.8327 14.9983 17.0812 14.9983C14.3297 14.9983 12.0938 12.7623 12.0938 10.0011C12.0938 7.23991 14.3299 5.00391 17.0811 5.00391C19.8323 5.00391 22.0687 7.23991 22.0687 10.0011Z" fill="#F79F1A"/>
<path d="M15.9125 10.0012C15.9125 12.7623 13.6764 14.9984 10.925 14.9984C8.17366 14.9984 5.9375 12.7624 5.9375 10.0012C5.9375 7.23999 8.1735 5.00391 10.925 5.00391C13.6765 5.00391 15.9125 7.23999 15.9125 10.0012Z" fill="#EA001B"/>
<path d="M13.9993 6.0625C12.8326 6.97634 12.0938 8.39586 12.0938 10.0001C12.0938 11.6043 12.8424 13.0236 13.9993 13.9375C15.166 13.0236 15.905 11.6042 15.905 9.99994C15.905 8.3957 15.166 6.97634 13.9993 6.0625Z" fill="#FF5F01"/>
</g>
<defs>
<clipPath id="clip0_951_30813">
<rect width="28" height="20" fill="white"/>
</clipPath>
</defs>
</svg>
