<svg width="368" height="371" viewBox="0 0 368 371" fill="none" xmlns="http://www.w3.org/2000/svg">
<path d="M137.348 322.999L140.299 313.812L147.108 316.005L146.609 317.559L141.65 315.968L140.993 318.003L145.61 319.484L145.11 321.029L140.494 319.548L139.689 322.046L144.823 323.693L144.324 325.238L137.339 322.99L137.348 322.999Z" fill="#142819"/>
<path d="M151.264 323.861L153.16 324.083C153.142 324.731 153.262 325.24 153.549 325.6C153.826 325.97 154.252 326.211 154.835 326.331C155.445 326.461 155.935 326.433 156.306 326.239C156.676 326.044 156.898 325.776 156.972 325.425C157.018 325.202 156.99 324.999 156.898 324.814C156.805 324.629 156.602 324.444 156.296 324.259C156.093 324.129 155.612 323.889 154.862 323.519C153.9 323.047 153.243 322.584 152.91 322.122C152.438 321.474 152.29 320.78 152.448 320.04C152.549 319.559 152.781 319.143 153.151 318.782C153.512 318.421 153.974 318.19 154.529 318.079C155.084 317.968 155.732 317.996 156.454 318.153C157.638 318.403 158.47 318.856 158.961 319.504C159.451 320.151 159.608 320.91 159.46 321.789L157.536 321.465C157.564 320.965 157.462 320.577 157.24 320.309C157.018 320.04 156.639 319.846 156.102 319.735C155.547 319.615 155.094 319.633 154.733 319.8C154.502 319.901 154.354 320.077 154.307 320.318C154.261 320.54 154.307 320.753 154.465 320.947C154.659 321.197 155.195 321.539 156.084 321.955C156.962 322.372 157.601 322.751 157.989 323.075C158.387 323.408 158.665 323.796 158.822 324.259C158.988 324.721 159.007 325.249 158.877 325.841C158.757 326.377 158.498 326.858 158.1 327.266C157.703 327.673 157.203 327.932 156.602 328.043C156 328.154 155.297 328.126 154.474 327.941C153.28 327.682 152.429 327.21 151.902 326.525C151.384 325.832 151.171 324.953 151.273 323.87L151.264 323.861Z" fill="#142819"/>
<path d="M167.313 329.93L168.239 321.964L165.398 321.631L165.583 320.012L173.197 320.9L173.012 322.519L170.172 322.186L169.247 330.152L167.313 329.93Z" fill="#142819"/>
<path d="M176.994 330.8L177.087 328.949L178.937 329.042L178.844 330.892L176.994 330.8Z" fill="#142819"/>
<path d="M191.752 329.182L191.799 330.902L185.313 331.069C185.369 330.421 185.563 329.792 185.896 329.21C186.229 328.617 186.905 327.831 187.913 326.841C188.727 326.045 189.227 325.509 189.403 325.222C189.643 324.834 189.763 324.454 189.754 324.084C189.745 323.668 189.625 323.353 189.403 323.141C189.171 322.928 188.866 322.826 188.477 322.835C188.089 322.845 187.784 322.965 187.562 323.205C187.34 323.446 187.219 323.834 187.192 324.371L185.341 324.232C185.424 323.215 185.748 322.474 186.322 322.012C186.886 321.559 187.608 321.318 188.477 321.29C189.43 321.262 190.18 321.503 190.744 322.003C191.299 322.502 191.586 323.131 191.604 323.899C191.614 324.334 191.549 324.75 191.401 325.148C191.253 325.546 191.022 325.962 190.689 326.397C190.476 326.684 190.078 327.109 189.514 327.655C188.94 328.21 188.579 328.571 188.431 328.747C188.283 328.923 188.154 329.098 188.07 329.265L191.743 329.172L191.752 329.182Z" fill="#142819"/>
<path d="M200.312 320.466C201.237 320.364 202.005 320.614 202.606 321.215C203.318 321.928 203.781 323.195 203.984 325.018C204.188 326.831 204.021 328.172 203.485 329.033C203.041 329.745 202.356 330.152 201.422 330.263C200.487 330.365 199.692 330.097 199.044 329.44C198.387 328.792 197.962 327.543 197.749 325.702C197.545 323.898 197.712 322.566 198.249 321.696C198.693 320.984 199.377 320.577 200.312 320.466ZM200.487 321.992C200.265 322.02 200.071 322.113 199.914 322.27C199.757 322.427 199.646 322.705 199.599 323.075C199.525 323.565 199.553 324.37 199.683 325.499C199.812 326.627 199.951 327.386 200.117 327.802C200.275 328.209 200.45 328.478 200.645 328.598C200.839 328.718 201.033 328.765 201.265 328.737C201.496 328.709 201.681 328.616 201.838 328.459C201.995 328.302 202.106 328.024 202.162 327.654C202.236 327.164 202.208 326.368 202.079 325.24C201.949 324.111 201.81 323.343 201.644 322.936C201.487 322.529 201.311 322.261 201.117 322.14C200.922 322.02 200.719 321.974 200.497 321.992H200.487Z" fill="#142819"/>
<path d="M216.743 325.794L217.085 327.477L210.729 328.772C210.665 328.125 210.748 327.477 210.979 326.839C211.21 326.201 211.728 325.303 212.552 324.156C213.218 323.231 213.606 322.611 213.736 322.306C213.912 321.88 213.958 321.482 213.884 321.122C213.801 320.715 213.625 320.428 213.366 320.252C213.107 320.076 212.783 320.03 212.404 320.113C212.024 320.187 211.747 320.363 211.571 320.641C211.395 320.909 211.34 321.316 211.414 321.852L209.573 322.037C209.48 321.02 209.665 320.233 210.146 319.688C210.628 319.142 211.294 318.772 212.145 318.605C213.079 318.42 213.865 318.522 214.495 318.911C215.133 319.308 215.521 319.873 215.679 320.622C215.762 321.048 215.771 321.473 215.697 321.88C215.623 322.296 215.466 322.75 215.216 323.24C215.05 323.564 214.744 324.045 214.273 324.683C213.81 325.322 213.514 325.747 213.403 325.951C213.283 326.154 213.199 326.349 213.135 326.534L216.733 325.803L216.743 325.794Z" fill="#142819"/>
<path d="M222.651 323.461L224.307 322.739C224.492 323.165 224.742 323.452 225.047 323.609C225.352 323.766 225.676 323.803 226.019 323.701C226.389 323.59 226.648 323.359 226.823 323.007C226.99 322.656 227.009 322.24 226.86 321.777C226.731 321.333 226.5 321.018 226.185 320.824C225.871 320.639 225.538 320.593 225.195 320.695C224.964 320.759 224.705 320.889 224.418 321.074L224.187 319.575C224.668 319.446 225.001 319.233 225.195 318.937C225.38 318.641 225.417 318.308 225.315 317.947C225.223 317.632 225.056 317.42 224.816 317.281C224.575 317.151 224.298 317.133 223.993 317.225C223.687 317.318 223.465 317.494 223.308 317.771C223.16 318.049 223.114 318.391 223.188 318.807L221.476 319.02C221.421 318.428 221.458 317.929 221.587 317.531C221.717 317.124 221.957 316.772 222.309 316.457C222.66 316.143 223.095 315.912 223.604 315.764C224.474 315.505 225.26 315.569 225.945 315.976C226.509 316.3 226.879 316.753 227.055 317.318C227.295 318.132 227.055 318.909 226.305 319.658C226.87 319.612 227.369 319.742 227.804 320.047C228.239 320.343 228.544 320.778 228.711 321.333C228.951 322.147 228.859 322.924 228.442 323.674C228.017 324.423 227.369 324.932 226.481 325.191C225.639 325.441 224.881 325.404 224.187 325.089C223.493 324.774 222.984 324.238 222.67 323.489L222.651 323.461Z" fill="#142819"/>
<path d="M2.469 137.249L2.59852 136.694L9.22253 138.267L9.11152 138.757C4.72635 138.886 1.67337 140.357 0.775986 144.15C-0.50996 149.572 3.08883 152.033 8.76919 153.374L12.0442 154.151C15.4487 154.956 18.0854 155.132 20.0004 154.558C22.1005 153.929 23.3124 152.43 23.96 149.701C24.6169 146.907 23.6825 144.937 18.3907 143.688L16.7994 143.309L16.0038 146.648L15.5505 146.537L17.9281 136.509L18.3814 136.62L17.8818 138.729L25.3107 140.487L25.172 141.07C24.6261 141.042 24.2931 141.44 24.1728 141.967C23.7102 143.91 25.3107 145.973 24.4041 149.831C22.8406 156.455 15.976 160.655 9.55557 159.128C5.66072 158.203 2.77429 155.502 1.2478 152.227C0.0451198 149.646 -0.315679 146.676 0.285663 144.113C0.849999 141.745 2.68178 139.368 2.91306 138.396C3.06108 137.776 2.93157 137.582 2.469 137.23V137.249Z" fill="#142819"/>
<path d="M28.7037 102.274L28.8517 102.357C30.3042 100.534 31.4236 99.3226 32.173 98.8508C32.8946 98.3697 33.6902 98.0829 34.5876 98.0459C35.485 98.0089 36.7525 98.3975 38.9265 99.4336C40.9526 100.387 42.294 100.858 42.8954 100.997C43.4875 101.09 43.9315 100.914 44.2923 100.238C44.7272 99.4521 44.4219 98.7489 44.2276 98.0736L44.6531 97.9256C45.2267 99.6464 45.0047 100.553 44.1536 102.098C43.3487 103.56 42.3958 104.476 41.1746 104.836C39.9997 105.179 38.3714 104.818 36.1326 103.634C33.866 102.431 32.1175 101.931 30.924 102.107C29.7399 102.255 28.8147 103.042 28.1856 104.179L27.0662 106.224L37.6313 112.006L39.1023 109.314L39.5094 109.536L34.2361 119.158L33.829 118.936L35.3 116.243L15.2892 105.29L13.8182 107.982L13.4111 107.76L16.0015 103.023C16.5751 101.968 17.5835 99.9331 18.3514 98.5269C20.7197 94.1972 24.1058 92.2452 27.3253 94.0122C29.8694 95.4092 30.3597 98.4067 28.7037 102.255V102.274ZM26.6499 106.021L27.1587 105.086C28.0376 103.476 28.2319 102.44 28.0191 101.561C27.7693 100.553 27.0107 99.7204 25.1419 98.6935C21.5431 96.7229 19.7391 96.9542 18.2034 99.7667C18.0091 100.118 17.8426 100.562 17.602 101.071L26.6407 106.021H26.6499Z" fill="#142819"/>
<path d="M54.1829 51.7993L58.2998 55.7497L58.0038 56.0643C54.7658 54.4361 51.8701 54.8985 49.955 56.8969L46.1897 60.8194L53.6278 67.9524L54.664 66.8699C56.5143 64.9456 57.3007 63.2064 54.812 59.5336L55.1081 59.219L62.5925 66.3981L62.2964 66.7126C59.0214 64.6865 57.0231 65.0751 55.5244 66.6479L53.9517 68.2854L62.6387 76.6117L66.5151 72.5688C68.9112 70.0617 69.1425 66.3149 66.6816 62.5218L66.9776 62.2072L72.2509 67.2585L57.5042 82.6436L57.1712 82.3198L59.2897 80.1087L42.8222 64.3258L40.6944 66.5369L40.3613 66.2131L54.1644 51.8178L54.1829 51.7993Z" fill="#142819"/>
<path d="M94.1246 22.7256L97.0851 27.6011L96.715 27.8231C94.0044 25.4178 91.0902 25.1217 88.7218 26.5557L84.0776 29.3773L89.4342 38.1847L90.7201 37.4076C92.996 36.0199 94.2079 34.5396 92.7554 30.358L93.1255 30.136L98.519 38.9988L98.149 39.2208C95.5031 36.4176 93.477 36.2882 91.6268 37.4168L89.6932 38.601L95.9564 48.8886L100.739 45.9744C103.7 44.1704 104.884 40.5993 103.478 36.3066L103.848 36.0846L107.641 42.32L89.4342 53.4033L89.1936 53.0054L91.8118 51.4142L79.9515 31.9307L77.3333 33.522L77.0928 33.1242L94.1339 22.7534L94.1246 22.7256Z" fill="#142819"/>
<path d="M128.662 8.40507L143.732 20.5798L143.797 20.5614L139.523 5.75918L136.572 6.61023L136.442 6.15692L142.854 4.30664L142.983 4.75069L140.032 5.60186L146.48 27.9718L145.62 28.2215L125.276 11.8373L125.211 11.8558L131.002 31.9499L133.954 31.0987L134.083 31.5429L127.672 33.3931L127.542 32.9398L130.494 32.0887L124.166 10.172L121.214 11.0232L121.085 10.5699L128.653 8.38655L128.662 8.40507Z" fill="#142819"/>
<path d="M181.284 0.0926045V0.564323L178.221 0.582844L178.295 11.5181L187.935 11.4533L187.861 0.518133L184.79 0.536654V0.0740836L195.762 0V0.471831L192.7 0.490352L192.857 23.3044L195.929 23.2858V23.7577L184.956 23.8317V23.3598L188.019 23.3414L187.945 11.9343L178.305 11.9992L178.379 23.4061L181.45 23.3876V23.8502L170.478 23.9241V23.4616L173.54 23.4432L173.383 0.629146L170.312 0.647667V0.185096L181.284 0.111012V0.0926045Z" fill="#142819"/>
<path d="M242.792 9.08789L241.303 14.5924L240.887 14.4814C240.766 10.8549 238.972 8.54206 236.307 7.81119L231.062 6.38644L228.36 16.3317L229.813 16.7203C232.385 17.4142 234.29 17.2754 236.326 13.3343L236.742 13.4453L234.022 23.4554L233.606 23.3444C233.819 19.4958 232.514 17.9322 230.423 17.3679L228.231 16.7758L225.076 28.3956L230.488 29.8665C233.837 30.7732 237.242 29.1727 239.388 25.1946L239.804 25.3056L237.889 32.3552L217.323 26.7766L217.444 26.3233L220.404 27.1281L226.371 5.10974L223.411 4.30487L223.531 3.85156L242.783 9.06937L242.792 9.08789Z" fill="#142819"/>
<path d="M275.24 35.7218L275.157 35.8699C276.943 37.3778 278.127 38.5251 278.571 39.2929C279.033 40.0238 279.292 40.8378 279.311 41.7352C279.329 42.6326 278.904 43.8908 277.812 46.0279C276.804 48.0262 276.295 49.3491 276.138 49.9505C276.027 50.5426 276.193 50.9867 276.85 51.3752C277.627 51.8286 278.33 51.5418 279.015 51.3752L279.154 51.8008C277.414 52.3281 276.517 52.0784 274.99 51.1902C273.547 50.3484 272.659 49.3677 272.335 48.1372C272.021 46.9531 272.428 45.334 273.677 43.1229C274.944 40.8841 275.49 39.1634 275.342 37.9514C275.222 36.7672 274.463 35.8143 273.344 35.1575L271.327 33.9826L265.258 44.3812L267.904 45.9261L267.673 46.3333L258.199 40.8009L258.431 40.3938L261.076 41.9388L272.576 22.2333L269.93 20.6883L270.161 20.2812L274.824 23.0011C275.86 23.6025 277.868 24.6664 279.255 25.4713C283.52 27.9599 285.371 31.4014 283.52 34.5654C282.059 37.0725 279.043 37.4703 275.24 35.7218ZM271.549 33.5663L272.474 34.1028C274.056 35.0279 275.092 35.2408 275.971 35.065C276.989 34.843 277.84 34.1121 278.922 32.271C280.995 28.7278 280.81 26.9238 278.044 25.3048C277.701 25.1013 277.257 24.9254 276.758 24.6664L271.558 33.5663H271.549Z" fill="#142819"/>
<path d="M319.188 55.3335L319.817 55.9718L309.9 80.4326L311.907 82.4771L311.574 82.8009L303.72 74.8077L304.053 74.4839L306.227 76.695L309.891 67.6748L304.284 61.9668L295.31 65.584L297.392 67.7026L297.059 68.0264L292.618 63.5025L292.951 63.1787L294.94 65.2048L319.179 55.3335H319.188ZM304.747 61.7539L310.122 67.2308L313.859 58.0441L304.747 61.7632V61.7539Z" fill="#142819"/>
<path d="M349.358 96.9214L348.951 97.1527L347.443 94.479L327.562 105.664L330.309 110.549C331.142 112.029 332.446 113.056 334.186 113.574C335.943 114.111 337.896 114.046 339.996 113.361L340.208 113.741L333.64 117.432L323.278 99.003L323.685 98.7717L325.193 101.445L345.075 90.2604L343.567 87.5868L343.974 87.3555L349.349 96.9214H349.358Z" fill="#142819"/>
<path d="M349.611 156.756C346.79 154.628 345.013 151.011 344.236 147.838C343.857 146.283 343.505 144.72 343.163 143.156C342.738 141.269 342.266 139.354 341.812 137.476L342.266 137.365L342.997 140.344L365.154 134.932L364.423 131.953L364.876 131.842L365.709 135.246C365.801 135.635 366.986 140.048 367.282 141.278C369.363 149.799 366.995 156.552 359.159 158.467C355.144 159.448 352.008 158.569 349.611 156.747V156.756ZM344.144 145.044L344.394 146.496C345.846 152.454 349.417 155.257 357.586 153.268C365.524 151.325 368.568 148.485 366.865 141.491C366.717 140.871 366.523 140.233 366.31 139.632L344.153 145.044H344.144Z" fill="#142819"/>
<path d="M18.7657 257.941L15.722 250.577L11.5774 250.503L10.4395 247.755L28.2484 248.375L29.1643 250.595L16.9987 263.63L15.87 260.901L18.7657 257.941ZM20.4957 256.164L25.7691 250.734L18.2014 250.614L20.4957 256.155V256.164Z" fill="#142819"/>
<path d="M40.4145 272.716L42.0242 275.195L30.4415 282.707L34.5861 289.109L32.56 290.423L26.8057 281.542L40.4237 272.716H40.4145Z" fill="#142819"/>
<path d="M47.1666 306.522C47.2221 304.893 48.0547 303.33 49.6737 301.813L56.7418 295.226L58.7216 297.353L51.5425 304.051C50.5248 305.004 49.9698 305.966 49.8865 306.938C49.8032 307.909 50.2103 308.871 51.0984 309.815C51.9588 310.74 52.8839 311.203 53.8738 311.184C54.8637 311.175 55.8629 310.694 56.8713 309.75L64.0504 303.052L66.0302 305.18L58.9621 311.767C57.3524 313.266 55.7241 313.987 54.0959 313.932C52.4584 313.867 50.8856 313.035 49.3776 311.416C47.8512 309.778 47.1111 308.141 47.1573 306.522H47.1666Z" fill="#142819"/>
<path d="M93.0957 327.039L83.6592 340.232L81.5406 338.714L87.3968 330.527L78.0159 336.198L76.4339 335.069L78.6912 324.439L72.8998 332.534L70.7812 331.017L80.2177 317.825L82.1142 319.185L79.2926 332.766L91.1991 325.679L93.0957 327.039Z" fill="#142819"/>
<path d="M122.279 342.029L115.683 356.85L113.676 355.953L110.262 341.992L105.636 352.382L103.129 351.262L109.725 336.441L111.733 337.339L115.128 351.271L119.744 340.901L122.279 342.029Z" fill="#142819"/>
<path d="M140.735 348.001L143.593 348.742L139.523 364.441L136.664 363.701L140.735 348.001Z" fill="#142819"/>
<path d="M193.109 353.692L193.276 369.91L191.074 369.929L182.165 358.651L182.285 370.021L179.538 370.049L179.371 353.822L181.573 353.803L190.454 365.062L190.343 353.72L193.109 353.692Z" fill="#142819"/>
<path d="M212.199 351.563L222.894 349.445L223.347 351.721L215.483 353.275L216.353 357.678L223.745 356.217L224.198 358.493L216.806 359.954L217.732 364.626L225.595 363.072L226.049 365.348L215.354 367.467L212.199 351.554V351.563Z" fill="#142819"/>
<path d="M245.05 345.061L240.109 347.004L239.23 344.756L251.914 339.778L252.793 342.026L247.825 343.978L252.867 356.829L250.101 357.92L245.059 345.07L245.05 345.061Z" fill="#142819"/>
<path d="M287.386 318.879L291.623 335.568L289.625 336.91L279.726 329.5L282.769 341.499L280.771 342.84L266.968 332.562L269.456 330.896L279.577 338.677L276.367 326.271L278.116 325.096L288.339 332.923L285.017 320.479L287.376 318.897L287.386 318.879Z" fill="#142819"/>
<path d="M313.528 315.735C312.233 316.115 310.91 316.096 309.568 315.689C308.227 315.282 306.941 314.496 305.711 313.321C304.489 312.155 303.647 310.915 303.176 309.592C302.704 308.279 302.621 306.965 302.954 305.651C303.277 304.347 303.99 303.116 305.081 301.969C306.173 300.822 307.367 300.054 308.662 299.675C309.948 299.296 311.261 299.305 312.594 299.73C313.926 300.147 315.202 300.942 316.424 302.108C317.654 303.283 318.505 304.532 318.977 305.846C319.449 307.159 319.532 308.473 319.218 309.778C318.903 311.082 318.2 312.312 317.108 313.46C316.026 314.597 314.832 315.356 313.537 315.735H313.528ZM316.72 308.223C316.553 306.9 315.776 305.577 314.379 304.245C312.991 302.922 311.641 302.21 310.318 302.108C308.995 302.006 307.811 302.506 306.765 303.598C305.72 304.689 305.276 305.892 305.433 307.206C305.59 308.519 306.367 309.833 307.755 311.165C309.152 312.497 310.512 313.219 311.835 313.321C313.158 313.432 314.351 312.932 315.387 311.841C316.433 310.749 316.868 309.537 316.701 308.223H316.72Z" fill="#142819"/>
<path d="M342.794 279.173L341.128 281.801L335.457 280.663C334.939 280.552 334.486 280.598 334.116 280.82C333.746 281.042 333.394 281.403 333.07 281.921L331.488 284.419L337.178 288.036L335.605 290.506L321.913 281.81L325.66 275.917C326.65 274.353 327.741 273.391 328.935 273.012C330.128 272.633 331.359 272.845 332.635 273.65C333.542 274.233 334.162 274.964 334.495 275.843C334.819 276.731 334.837 277.702 334.541 278.766C335.226 278.063 336.16 277.832 337.354 278.082L342.803 279.182L342.794 279.173ZM331.507 280.117C332.108 279.173 332.376 278.368 332.312 277.702C332.256 277.027 331.868 276.472 331.164 276.028C330.471 275.584 329.814 275.482 329.194 275.713C328.574 275.944 327.954 276.537 327.353 277.49L325.373 280.598L329.527 283.235L331.507 280.126V280.117Z" fill="#142819"/>
<path d="M356.273 250.291L346.429 254.546L353.488 257.34L352.396 260.088L337.316 254.121L338.399 251.373L345.162 254.047L341.082 244.601L342.386 241.298L346.716 251.53L357.605 246.923L356.273 250.291Z" fill="#142819"/>
<path d="M240.222 64.5667C240.305 60.348 236.253 57.4061 232.118 57.915C231.979 61.264 230.24 70.4598 224.43 74.1696C217.778 78.4253 211.987 74.5675 212.727 71.9216C213.615 68.7761 217.399 69.2109 219.249 70.4044C220.507 67.9435 218.176 64.7332 215.104 64.1504C216.982 61.56 216.418 57.8131 213.985 55.3245C210.617 56.1849 208.184 59.0899 208.443 62.2816C205.77 61.2917 201.986 62.4296 201.653 65.4825C202.458 65.2975 206.723 66.491 205.344 70.3488C203.956 74.2251 196.537 73.1334 194.557 68.1192C193.78 65.7508 194.465 58.3868 202.328 60.8292C203.827 54.6492 198.258 49.5887 193.354 50.042C193.983 44.4356 189.247 39.4491 184.251 37.6266C184.047 37.5618 184.01 37.4878 183.733 37.6266C178.746 39.4491 174.01 44.4356 174.629 50.042C169.726 49.5887 164.157 54.64 165.656 60.8292C173.519 58.3868 174.204 65.7508 173.427 68.1192C171.447 73.1334 164.027 74.2251 162.64 70.3488C161.27 66.491 165.526 65.2975 166.331 65.4825C165.998 62.4296 162.214 61.2917 159.54 62.2816C159.799 59.0991 157.376 56.1941 153.999 55.3245C151.566 57.8131 150.992 61.56 152.879 64.1504C149.808 64.7332 147.467 67.9342 148.735 70.4044C150.585 69.2109 154.369 68.7761 155.257 71.9216C155.997 74.5675 150.206 78.4253 143.554 74.1696C137.753 70.4598 136.005 61.264 135.866 57.915C131.731 57.4061 127.679 60.3573 127.762 64.5667C123.543 63.9191 119.593 67.3513 119.639 71.6348C129.122 72.9114 138.253 79.3504 141.445 88.389C142.601 107.539 194.205 104.579 209.905 101.424C218.712 99.5092 225.975 95.8087 226.53 88.389C229.722 79.3597 238.862 72.9114 248.335 71.6348C248.382 67.3421 244.422 63.9191 240.213 64.5667H240.222ZM150.659 91.4421C149.493 90.2024 151.251 88.4908 152.482 89.6287C153.666 90.8499 151.88 92.6262 150.659 91.4421ZM184.001 100.24C140.418 99.8701 140.418 88.611 184.001 88.241C227.575 88.611 227.575 99.8701 184.001 100.24ZM162.214 86.548C163.889 86.363 164.231 88.8331 162.547 89.1014C160.863 89.305 160.53 86.8071 162.214 86.548ZM171.91 86.8996C171.873 85.1973 174.324 85.0585 174.472 86.7515C174.528 88.4538 172.048 88.6018 171.91 86.8996ZM182.715 86.4648C182.734 84.7533 185.222 84.7347 185.296 86.4185C185.278 88.1208 182.789 88.1578 182.715 86.4648ZM193.53 86.6776C193.697 84.9753 196.167 85.1603 196.102 86.8533C195.926 88.537 193.465 88.3798 193.53 86.6776ZM204.345 87.6583C204.632 85.956 207.093 86.3261 206.898 88.0006C206.63 89.6843 204.151 89.3328 204.345 87.6583ZM217.621 91.0349C216.723 92.8667 214.179 91.1644 215.521 89.6287C216.492 88.6666 218.176 89.749 217.621 91.0349ZM216.15 87.982C211.404 86.5111 197.629 84.522 184.01 84.374C177.201 84.448 170.355 84.9846 164.61 85.6877C158.865 86.3908 154.239 87.2512 151.862 87.982C148.42 89.046 148.133 85.5212 151.63 84.744C168.746 80.3311 199.562 80.3959 216.372 84.744C219.869 85.5304 219.582 89.046 216.141 87.982H216.15ZM228.815 79.3411C221.072 88.463 209.369 81.691 208.231 77.3059C208.231 77.3059 203.827 80.4143 196.888 79.813C190.079 79.2209 185.232 68.9981 184.02 60.607C182.919 67.6844 178.941 78.7861 171.142 79.813C164.203 80.4236 159.799 77.3059 159.799 77.3059C158.662 81.691 146.959 88.463 139.215 79.3411C137.393 77.1948 130.223 70.9964 123.164 70.5893C123.441 68.8131 125.708 66.195 129.483 67.4069C129.288 64.9275 130.361 62.0966 133.868 61.1529C133.729 63.6971 135.875 73.0965 144.895 78.3976C146.487 79.3227 153.268 80.0443 156.645 75.0301C158.504 72.2639 156.09 66.8702 151.51 68.5817C151.279 67.4438 152.759 65.5936 155.572 65.4549C153.786 63.6879 152.953 59.8669 154.572 57.8409C156.293 58.3312 158.412 60.9124 158.245 64.6869C160.16 63.5213 162.612 63.512 163.842 65.2605C158.347 66.1579 160.142 73.5683 164.86 74.9191C179.098 78.9897 179.56 57.4061 169.68 58.2572C169.68 58.2572 170.688 51.7905 177.599 53.0765C177.544 50.1623 178.524 44.4171 184.02 41.8267C189.506 44.4171 190.486 50.1623 190.431 53.0765C197.351 51.7813 198.35 58.2572 198.35 58.2572C188.46 57.4061 188.923 78.9897 203.17 74.9191C207.888 73.5683 209.683 66.1579 204.188 65.2605C205.418 63.512 207.861 63.512 209.785 64.6869C209.628 60.9124 211.737 58.3312 213.458 57.8409C215.077 59.8669 214.244 63.6786 212.459 65.4549C215.271 65.5936 216.751 67.4438 216.52 68.5817C211.94 66.8702 209.526 72.2546 211.385 75.0301C214.762 80.0443 221.543 79.3227 223.135 78.3976C232.155 73.0873 234.31 63.6971 234.162 61.1529C237.669 62.0966 238.742 64.9275 238.547 67.4069C242.322 66.2042 244.589 68.8131 244.866 70.5893C237.807 70.9964 230.638 77.1948 228.815 79.3411Z" fill="#142819"/>
<path d="M229.755 238.083C229.709 235.733 229.654 233.263 229.598 230.709C229.598 230.302 228.969 228.248 213.852 227.675C213.732 237.435 213.547 245.678 213.371 251.886C213.371 251.95 213.371 252.006 213.371 252.071C213.621 251.941 213.963 251.765 214.379 251.534C214.379 251.368 214.38 251.201 214.389 251.035C214.389 250.785 214.398 250.526 214.407 250.267H216.609C218.21 249.305 220.162 248.037 222.132 246.52H214.5C214.518 245.697 214.537 244.855 214.555 243.976H225.12C226.36 242.819 227.544 241.561 228.553 240.229H214.629C214.648 239.406 214.666 238.554 214.685 237.694H228.738C228.738 238.11 228.756 238.517 228.765 238.915C228.765 239.248 228.775 239.581 228.784 239.914C229.126 239.452 229.45 238.98 229.746 238.499C229.746 238.36 229.746 238.231 229.746 238.092L229.755 238.083ZM214.759 233.938C214.768 233.096 214.787 232.254 214.805 231.385H228.627C228.645 232.245 228.664 233.096 228.682 233.938H214.759Z" fill="#142819"/>
<path d="M249.572 269.416C248.259 268.214 245.289 266.576 240.996 268.889C239.516 269.916 238.369 271.498 237.758 273.367L237.222 274.995C238.23 274.144 239.405 273.015 240.83 273.061C245.622 273.089 245.677 279.519 240.941 279.667C238.628 279.565 236.556 278.529 234.798 276.577C231.81 273.256 230.422 268.204 230.255 263.949C230.098 264.05 229.931 264.152 229.765 264.245C229.164 264.467 229.302 264.837 229.367 265.383H227.794C225.232 266.807 222.567 268.056 219.82 269.129H230.005C230.218 269.981 230.477 270.832 230.792 271.664H211.928C211.308 271.84 210.679 271.979 210.05 272.127C209.726 272.201 209.412 272.266 209.088 272.34C207.21 273.894 204.657 274.653 201.446 274.671H200.78L200.975 275.3C203.935 285.495 215.851 282.979 221.124 275.578C224.538 282.063 232.744 287.207 239.84 287.198C245.511 287.373 250.127 284.94 251.783 280.583C253.319 276.725 252.357 271.923 249.563 269.426L249.572 269.416ZM217.47 277.955H203.306C202.843 277.28 202.455 276.512 202.14 275.633C202.917 275.606 203.667 275.532 204.37 275.411H220.014C219.265 276.355 218.404 277.215 217.461 277.955H217.47ZM223.946 277.955C223.252 277.123 222.669 276.272 222.179 275.411H232.679C233.271 276.336 233.974 277.206 234.77 277.955H223.937H223.946ZM247.666 284.246H231.985C230.533 283.543 229.145 282.674 227.868 281.711H250.109C249.563 282.572 248.786 283.479 247.666 284.246ZM251.45 277.955H245.132C245.455 277.141 245.529 276.262 245.335 275.411H251.46C251.571 276.244 251.571 277.104 251.46 277.955H251.45ZM239.673 271.664C240.441 270.452 241.561 269.518 242.902 269.129H247.306C248.49 269.601 249.507 270.563 250.183 271.664H239.682H239.673Z" fill="#142819"/>
<path d="M212.12 129.848C212.166 130.292 212.453 130.292 212.814 130.375C213.304 130.496 213.803 130.635 214.284 130.773H229.531C229.392 131.643 229.299 132.494 229.272 133.327H221.093C223.462 134.437 225.756 135.686 227.977 137.073H229.244C229.244 137.305 229.235 137.573 229.225 137.869C229.559 138.082 229.882 138.295 230.197 138.517C230.234 136.833 230.262 135.88 230.262 135.825C229.855 129.95 232.306 120.236 239.124 118.21H242.381C243.796 118.765 244.444 120.06 244.435 121.272C244.509 123.983 240.984 125.648 238.532 123.696L237.219 122.604L237.755 124.233C238.375 126.12 239.541 127.73 241.049 128.738C249.736 133.16 254.399 123.622 251.79 117.026C250.078 112.678 245.684 110.272 239.837 110.411C233.204 110.411 225.627 114.889 221.871 120.754C220.834 122.53 221.316 122.021 220.104 120.754C214.469 114.315 203.71 112.798 200.99 122.308L200.796 122.947H201.508C206.911 122.974 210.501 125.111 212.138 129.867L212.12 129.848ZM249.32 127.026H240.549C240.031 126.499 239.596 125.889 239.245 125.204C239.744 125.389 240.281 125.5 240.836 125.509C242.131 125.509 243.167 125.111 243.926 124.482H250.883C250.513 125.435 249.995 126.305 249.329 127.017L249.32 127.026ZM251.142 118.201C251.383 119.024 251.503 119.884 251.512 120.745H245.388C245.286 119.81 244.87 118.894 244.157 118.201H251.133H251.142ZM235.859 111.91H244.546C246.553 112.465 247.978 113.427 248.977 114.445H229.956C231.797 113.316 233.805 112.419 235.859 111.91ZM225.229 118.201H236.636C235.72 118.746 234.86 119.459 234.055 120.347C233.934 120.476 233.833 120.606 233.722 120.735H223.083C223.693 119.866 224.415 119.015 225.229 118.191V118.201ZM231.39 124.492C231.011 125.315 230.687 126.166 230.41 127.026H211.898C211.296 126.037 210.593 125.204 209.714 124.492H231.39ZM204.561 118.201H215.33C216.542 118.876 217.698 119.736 218.716 120.745H202.637C203.155 119.718 203.793 118.867 204.561 118.201Z" fill="#142819"/>
<path d="M264.676 213.713C260.54 213.713 255.378 213.676 251.474 213.695C252.769 226.11 236.921 225.528 238.587 213.695H229.271C227.189 200.493 233.212 166.143 226.773 158.473H214.663C214.644 157.613 214.626 156.762 214.607 155.929H224.45C223.128 154.634 221.61 153.376 219.945 152.182H214.533C214.514 151.303 214.487 150.461 214.468 149.647H216.013C215.181 149.157 214.311 148.685 213.441 148.241C213.7 158.279 214.006 173.664 213.95 189.928H159.95C159.913 175.172 160.125 160.601 160.532 145.91C181.635 129.045 246.376 144.541 230.538 180.186C234.525 184.997 237.8 182.508 242.343 181.158C251.909 188.522 265.48 184.414 271.124 173.562C264.195 178.826 256.645 173.313 253.639 165.569C259.143 162.627 262.298 155.402 260.253 148.88C233.6 161.397 221.564 111.865 160.884 134.882C161.31 128.027 164.982 123.336 172.439 123.466H173.105C170.876 112.725 157.498 115.121 152.761 122.55C149.079 115.945 141.66 111.125 134.046 110.93C115.145 110.347 119.678 135.946 132.843 129.257C134.962 127.907 136.016 125.464 136.664 123.133C136.664 123.105 135.35 124.224 135.35 124.215C132.427 126.713 127.857 123.336 129.92 120.034C132.121 116.897 136.849 118.96 139.088 121.551C144.824 128.092 143.427 136.723 143.806 144.985C135.415 151.711 128.615 160.481 124.406 171.083C117.005 168.391 109.196 177.152 114.016 183.72C111.176 186.329 103.118 199.17 96.8643 200.262C101.879 200.438 110.64 213.454 112.666 214.898C115.376 218.191 109.539 222.012 115.219 227.276C118.022 229.987 122.241 230.745 125.562 228.886C129.707 238.553 136.062 246.778 143.787 253.356C143.51 262.33 144.833 274.125 135.443 278.649C126.441 281.739 128.837 269.12 135.341 273.394C135.341 273.394 136.645 274.495 136.655 274.486C132.075 258.657 114.747 271.868 123.795 282.877C131.788 291.203 147.571 284.764 152.539 275.43H153.03C158.414 282.562 170.376 285.005 173.087 274.144C166.204 274.514 161.837 270.711 161.051 264.328C188.416 277.428 222.896 272.377 243.888 250.062C247.561 256.594 257.395 259.23 263.584 254.762C253.898 248.711 248.837 230.366 260.392 223.733C267.322 219.755 268.395 225.148 267.803 213.713C267.1 213.723 265.989 213.732 264.648 213.732L264.676 213.713ZM252.112 181.176C255.998 181.898 261.179 181.297 264.148 179.002C256.1 184.775 250.382 183.387 244.933 179.215C247.144 180.307 249.679 180.797 252.112 181.176ZM235.034 162.71C243.582 173.858 233.498 179.409 233.498 179.409C237.689 175.746 237.032 166.448 235.025 162.701C235.025 162.701 235.025 162.71 235.034 162.72V162.71ZM230.445 224.935C231.509 225.564 232.231 226.517 232.731 227.221C230.797 225.046 227.3 224.39 224.626 224.556C224.654 224.556 224.691 224.547 224.719 224.538C224.682 224.538 224.654 224.547 224.626 224.556C226.56 224.094 228.688 223.89 230.445 224.935ZM159.635 143.356C159.607 144.198 159.589 145.012 159.561 145.901H144.851C144.833 145.031 144.824 144.208 144.805 143.356H159.635ZM144.722 139.61C144.694 138.768 144.676 137.87 144.657 137.065H159.848C159.82 137.787 159.792 138.814 159.755 139.61H144.722ZM144.972 246.519C144.981 245.677 144.999 244.826 145.018 243.975H159.367C159.385 244.826 159.404 245.677 159.422 246.519H144.972ZM159.524 250.266C159.543 251.108 159.57 252.005 159.589 252.801H144.833C144.851 251.959 144.87 251.145 144.898 250.266H159.533H159.524ZM145.101 240.228C145.12 239.395 145.138 238.553 145.157 237.693H159.237C159.256 238.544 159.274 239.395 159.293 240.228H145.101ZM145.24 233.946C145.249 233.104 145.268 232.244 145.286 231.393H159.126C159.136 232.244 159.163 233.104 159.173 233.946H145.231H145.24ZM145.36 227.655C145.379 226.813 145.397 225.962 145.416 225.12H159.062C159.062 225.972 159.08 226.804 159.089 227.655H145.36ZM145.49 221.364C145.508 220.522 145.517 219.671 145.536 218.82H159.006C159.006 219.671 159.015 220.513 159.025 221.364H145.49ZM145.61 215.073C145.619 214.232 145.638 213.39 145.656 212.539H158.978C158.978 213.362 158.978 214.25 158.978 215.073H145.601H145.61ZM158.978 208.782H145.721C145.73 207.941 145.749 207.089 145.767 206.248H158.988C158.988 207.089 158.988 207.941 158.988 208.782H158.978ZM145.739 189.919C145.73 189.068 145.712 188.226 145.702 187.375H158.978C158.978 188.217 158.978 189.068 158.978 189.919H145.73H145.739ZM145.628 183.628C145.61 182.786 145.601 181.935 145.582 181.093H158.988C158.988 181.935 158.988 182.786 158.988 183.628H145.628ZM145.508 177.337C145.49 176.486 145.48 175.644 145.453 174.793H159.034C159.025 175.635 159.015 176.486 159.015 177.337H145.508ZM145.388 171.046C145.36 170.195 145.351 169.353 145.332 168.502H159.099C159.099 169.353 159.08 170.195 159.071 171.046H145.388ZM145.258 164.755C145.24 163.895 145.221 163.053 145.203 162.22H159.2C159.191 163.071 159.173 163.904 159.163 164.755H145.258ZM145.129 158.464C145.11 157.594 145.092 156.771 145.073 155.92H159.321C159.302 156.762 159.293 157.613 159.274 158.464H145.129ZM144.99 152.173C144.972 151.331 144.953 150.471 144.935 149.638H159.459C159.441 150.489 159.422 151.303 159.395 152.173H144.981H144.99ZM159.709 256.538C159.737 257.584 159.774 258.435 159.792 259.082H144.685C144.703 258.25 144.722 257.389 144.74 256.538H159.7H159.709ZM159.931 262.829C160.005 263.69 160.116 264.541 160.283 265.373H144.509C144.602 264.531 144.666 263.662 144.676 262.829H159.922H159.931ZM145.823 202.491C145.841 201.64 145.86 200.789 145.869 199.938H228.068C228.077 200.78 228.096 201.631 228.114 202.491H145.823ZM228.179 206.238C228.197 207.08 228.207 207.931 228.225 208.773H214.968C214.968 207.931 214.968 207.08 214.968 206.238H228.188H228.179ZM228.484 174.793C228.475 175.635 228.456 176.486 228.438 177.337H214.949C214.949 176.477 214.94 175.635 214.922 174.793H228.484ZM214.885 171.046C214.885 170.186 214.866 169.344 214.857 168.502H228.604C228.586 169.344 228.577 170.186 228.558 171.046H214.885ZM228.373 181.084C228.355 181.926 228.336 182.768 228.327 183.619H214.977C214.977 182.768 214.977 181.926 214.977 181.084H228.382H228.373ZM214.977 187.375H228.253C228.234 188.217 228.225 189.068 228.207 189.919H214.968C214.968 189.068 214.968 188.217 214.968 187.375H214.977ZM214.977 212.529H228.299C228.299 212.918 228.308 213.306 228.318 213.695H214.977C214.977 213.306 214.977 212.918 214.977 212.529ZM228.734 162.22C228.715 163.053 228.697 163.895 228.678 164.755H214.801C214.792 163.895 214.774 163.053 214.755 162.22H228.734ZM228.142 193.666C228.133 194.508 228.114 195.359 228.096 196.201H145.841C145.823 195.359 145.813 194.508 145.795 193.666H228.133H228.142ZM160.514 131.228C160.329 131.912 160.199 132.606 160.098 133.319H144.62C144.546 132.468 144.454 131.616 144.296 130.765H160.634C160.597 130.923 160.542 131.071 160.514 131.228ZM160.634 142.737C168.433 138.453 177.296 136.455 186.196 136.51C195.605 136.557 204.912 139.304 213.34 143.412C213.33 143.412 213.321 143.403 213.312 143.394C216.79 145.096 218.77 146.456 218.77 146.456C201.202 135.086 174.78 135.493 160.653 144.393C160.634 144.134 160.634 143.338 160.634 143.338M157.554 119.349C158.784 117.489 166.87 118.35 168.664 118.183C169.627 118.822 170.413 119.701 170.996 120.728H155.777C156.342 120.228 156.934 119.765 157.554 119.358V119.349ZM129.522 124.502C130.743 125.955 132.945 126.371 134.684 125.723C134.444 126.177 134.166 126.611 133.842 127.009H124.165C123.573 126.26 123.157 125.381 122.87 124.474C122.907 124.502 129.522 124.419 129.522 124.502ZM130.077 118.424C129.346 118.997 128.837 119.821 128.615 120.718H122.426C122.481 119.849 122.657 118.988 122.944 118.174H130.41C130.29 118.248 130.179 118.331 130.068 118.415L130.077 118.424ZM125.516 114.427C130.456 110.486 137.857 111.504 143.066 114.427H125.516ZM136.248 118.174H148.154C148.987 118.961 149.755 119.812 150.448 120.718H139.726C138.745 119.654 137.57 118.748 136.248 118.174ZM143.334 127C143.029 126.13 142.687 125.288 142.27 124.465H152.632C152.558 124.465 164.871 124.465 164.908 124.465C163.909 125.15 163.049 126.01 162.364 127H143.334ZM144.222 160.324C144.222 160.324 144.204 160.342 144.185 160.37C139.384 167.059 137.21 174.025 134.462 185.469C134.286 185.191 135.702 175.82 137.265 172.249C138.792 168.021 141.391 162.072 144.158 158.501M116.875 199.873C115.645 194.313 119.271 190.391 123.545 192.5C121.704 191.593 124.11 186.773 127.237 187.402C126.894 187.338 127.2 187.449 127.551 187.347C123.758 188.392 123.314 192.481 123.545 192.5C118.735 192.139 116.32 196.321 116.875 199.92C116.875 199.901 116.875 199.883 116.875 199.864V199.873ZM135.008 206.414C133.176 212.085 124.026 209.948 125.146 203.787C117.717 205.868 116.024 192.99 124.831 194.267C125.072 194.267 125.183 194.128 125.072 193.499C124.933 187.911 133.037 186.431 134.925 191.492C136.146 180.732 139.328 170.944 144.241 162.803C144.916 185.515 144.944 211.262 144.25 234.011C139.273 226.147 135.942 216.831 135.008 206.423V206.414ZM123.527 271.516C124.045 270.573 124.767 269.685 125.673 269.092H132.279C133.259 269.694 134.036 270.628 134.592 271.627C133.176 271.498 125.275 271.701 123.471 271.627C123.49 271.581 123.508 271.544 123.536 271.507L123.527 271.516ZM122.574 277.927C122.407 277.095 122.37 276.234 122.426 275.383H128.513C128.43 276.253 128.624 277.169 129.059 277.927H122.574ZM144.796 282.054C142.242 285.301 130.595 284.006 127.126 284.219C125.969 283.589 124.942 282.729 124.184 281.684H145.332C145.157 281.813 144.981 281.933 144.796 282.054ZM149.542 277.927H138.56C139.421 277.224 140.235 276.299 140.892 275.383C140.892 275.383 151.448 275.374 151.438 275.383C150.883 276.271 150.236 277.123 149.542 277.918V277.927ZM171.671 275.383C171.32 276.299 170.857 277.178 170.228 277.927H157.156C156.138 277.206 155.185 276.346 154.362 275.383H171.671ZM161.522 269.092C161.994 270.036 162.549 270.869 163.252 271.627H142.927C143.26 270.795 143.538 269.953 143.787 269.092H161.532H161.522ZM222.572 262.801C205.004 272.774 180.275 271.239 165.426 262.801C187.306 272.478 212.044 268.981 230.973 256.945C228.262 258.86 225.496 261.275 222.572 262.801ZM230.094 242.772C218.668 257.676 183.143 269.74 160.532 250.987C160.135 236.167 159.922 221.327 159.968 206.47H186.964H213.969C213.978 208.875 213.987 211.262 213.969 213.658H201.877C201.035 225.426 204.384 224.334 214.394 224.917C220.093 225.37 226.403 225.787 229.539 226.952C235.099 231.078 234.71 237.591 230.085 242.772H230.094ZM206.41 223.196C201.701 222.178 203.746 217.627 203.33 215.027C203.33 215.036 203.33 215.046 203.33 215.064V215.027C203.2 218.321 204.726 221.318 206.41 223.196ZM253.842 246.473C250.188 244.308 247.255 240.136 251.548 231.856C251.548 231.856 251.548 231.855 251.548 231.865C251.548 231.865 251.548 231.865 251.548 231.856C251.548 231.856 250.049 240.709 253.842 246.473Z" fill="#142819"/>
<path d="M113.467 307.801C117.315 310.133 121.275 312.27 125.336 314.222V316.257C120.822 314.129 116.418 311.761 112.153 309.161C111.108 311.215 108.545 313.491 104.632 314.435C104.003 314.564 103.336 314.657 102.661 314.703C101.014 314.814 99.2936 314.647 97.6838 314.222C95.8521 313.787 94.5569 312.917 93.8075 312.279C94.2423 311.419 95.0934 310.512 96.2314 309.735C97.7116 308.699 99.6914 307.912 102.3 307.311C103.17 307.126 104.058 306.997 104.918 306.941C106.343 306.83 107.694 306.895 108.934 307.135C104.937 304.554 101.024 301.732 97.323 298.744C96.842 299.457 96.1389 300.151 95.2785 300.733C93.6595 301.844 91.6612 302.537 89.6629 302.704C89.5056 302.713 89.3668 302.722 89.2095 302.732C86.3139 302.889 83.8807 302.158 82.345 301.529C80.9018 300.835 79.6251 299.938 78.7832 299.031C79.8656 297.523 82.6595 295.997 86.5451 295.664C86.9337 295.636 87.3315 295.608 87.7293 295.599C90.7268 295.423 93.0211 295.941 94.5291 296.468C90.8748 293.378 87.35 290.085 84.0288 286.643C82.9001 287.828 80.8185 288.956 78.0894 289.206C77.2475 289.289 76.3871 289.28 75.5175 289.178C74.324 289.058 73.1213 288.799 71.9371 288.401C70.7715 288.013 69.7538 287.522 68.9397 286.958C67.5705 286.061 66.3956 284.987 65.674 283.988C66.6639 282.961 68.6437 282.203 70.975 281.962C72.2517 281.833 73.6024 281.86 74.9809 282.045C76.2761 282.24 77.4787 282.471 78.5057 282.749C79.5511 283.045 80.5317 283.415 81.4198 283.85C78.2189 280.362 75.1659 276.652 72.3257 272.822C71.6781 273.303 70.8547 273.701 69.9296 273.96C69.4208 274.098 68.8842 274.2 68.3199 274.265C66.8396 274.422 65.2669 274.293 63.6387 273.886C62.4637 273.59 61.3073 273.155 60.1786 272.581C59.1147 272.054 58.2266 271.351 57.4032 270.666C56.182 269.602 55.1458 268.409 54.5445 267.327C55.2569 266.79 56.3855 266.411 57.7362 266.253C59.6328 266.031 61.8161 266.253 64.0457 266.901C65.2021 267.215 66.2105 267.65 67.404 268.168C68.3384 268.575 69.1895 269.029 69.9574 269.538C67.2837 265.698 64.7766 261.692 62.5192 257.649C61.8716 257.983 61.0945 258.205 60.2156 258.316C58.8557 258.482 56.6538 258.436 53.8691 257.28C52.648 256.771 51.5563 256.16 50.6126 255.494C49.7153 254.809 48.8734 254.032 48.1148 253.181C47.0138 251.96 46.135 250.628 45.6724 249.49C46.1072 249.268 46.6716 249.101 47.3284 249.009C49.5117 248.722 52.3612 249.277 55.1828 250.554C56.293 251.053 57.3384 251.645 58.3006 252.302C58.9852 252.746 59.8086 253.311 60.5302 253.921C58.4116 249.832 56.4596 245.567 54.7295 241.228C54.452 241.311 54.1374 241.386 53.8136 241.441C51.584 241.756 48.8086 241.052 46.209 239.507C44.2107 238.36 42.4437 236.714 40.9634 234.614C40.0105 233.3 39.3167 231.866 39.0299 230.635C39.2334 230.571 39.4555 230.515 39.696 230.478C40.4361 230.358 41.3427 230.413 42.3141 230.608C44.1274 230.968 46.209 231.857 48.3368 233.17C50.2333 234.41 51.8986 235.807 53.2216 237.259C51.6488 232.893 50.2703 228.461 49.1602 224.039C47.2451 224.335 44.0534 223.688 40.8061 221.032C39.7607 220.181 38.8541 219.275 38.0955 218.331C37.3831 217.415 36.7355 216.416 36.1897 215.38C35.6531 214.362 35.2645 213.428 35.024 212.595C34.8852 212.086 34.7927 211.596 34.7465 211.152C35.5976 211.004 36.7725 211.18 38.0307 211.642C38.9096 211.966 39.8163 212.41 40.7321 212.974C41.7591 213.585 42.7582 214.307 43.7203 215.111C44.6917 215.926 45.5706 216.805 46.357 217.72C47.1526 218.627 47.7632 219.404 48.2258 220.107C47.7632 218.044 47.3377 215.907 46.9491 213.724C46.5143 211.226 46.1442 208.719 45.8389 206.258C45.8389 206.23 45.8389 206.212 45.8297 206.193C43.7666 206.239 40.5564 204.991 37.7069 201.901C36.7725 200.892 35.9769 199.856 35.3386 198.811C34.728 197.784 34.2099 196.701 33.7936 195.591C33.183 194.018 32.8592 192.436 32.8777 191.187C33.7473 191.187 34.8945 191.539 36.1064 192.205C37.8087 193.149 39.622 194.647 41.3612 196.553C42.2216 197.506 42.9987 198.515 43.6648 199.541C44.4327 200.698 44.9693 201.614 45.3579 202.437C45.3856 202.502 45.4134 202.567 45.4411 202.631C45.0526 198.588 44.8398 194.416 44.8028 190.234V189.642C44.8028 189.254 44.8028 188.856 44.8028 188.477V188.199C42.6564 188.005 39.5017 186.155 37.0131 182.621C35.1813 180.095 34.3024 177.495 33.8861 175.747C33.4698 174.119 33.3495 172.49 33.516 171.232C34.3949 171.371 35.4866 171.898 36.6245 172.768C38.188 173.943 39.8162 175.728 41.3335 177.921C42.7027 179.938 43.8129 182.121 44.6085 184.415C44.627 184.48 44.6548 184.573 44.6733 184.656C44.6918 184.739 44.7195 184.822 44.738 184.906L44.8675 184.887C44.8675 184.841 44.8675 184.785 44.8675 184.73C45.0063 180.132 45.3949 175.423 46.024 170.733C46.0517 170.547 46.0795 170.353 46.1072 170.168C43.9701 169.761 40.8802 167.365 38.7246 163.304C36.2452 158.687 36.0232 153.821 36.643 151.406C38.5303 152.017 41.352 154.737 43.6556 159.316C44.9323 161.888 45.8204 164.497 46.1997 166.847H46.5883C46.5883 166.847 46.5975 166.782 46.616 166.736C47.3469 162.249 48.309 157.744 49.4747 153.377C49.5395 153.118 49.6135 152.84 49.6875 152.572C48.7346 152.313 47.6337 151.601 46.579 150.537C45.5336 149.473 44.0256 147.548 42.8415 144.44C41.9256 142.127 41.4815 139.611 41.463 136.724C41.463 135.068 41.7591 133.449 42.2401 132.237C44.0719 133.153 46.5698 136.327 48.2905 141.267C49.2712 144.051 49.8263 146.799 49.9095 149.204L50.6126 149.343C50.6126 149.343 50.6219 149.288 50.6404 149.26C51.9726 144.81 53.5361 140.388 55.2939 136.114C55.3494 135.975 55.3956 135.855 55.4511 135.725L55.3586 135.466C53.3788 134.661 50.6774 131.414 49.3915 126.168C48.7809 123.671 48.6421 120.988 48.9844 118.212C49.2342 116.519 49.7245 114.937 50.3351 113.836C52.0559 115.058 54.2114 118.721 55.2846 123.874C55.8767 126.455 56.0987 129.027 55.9692 131.516C55.9692 131.636 55.96 131.729 55.9415 131.83C55.9322 131.932 55.923 132.025 55.9137 132.117L56.8574 132.45C56.8574 132.45 56.8851 132.385 56.9036 132.348C58.8001 128.093 60.9187 123.911 63.1853 119.933C63.2038 119.905 63.2131 119.887 63.2316 119.85L63.1113 119.304C61.2333 118.175 58.9112 114.465 58.2728 108.97C57.9213 105.621 58.4023 102.725 58.8742 100.894C59.3737 99.2006 60.0676 97.6926 60.8077 96.7027C62.3989 98.2199 64.1012 102.263 64.5175 107.638C64.7766 110.441 64.684 113.124 64.2215 115.409C64.1937 115.566 64.1752 115.668 64.1475 115.779C64.1197 115.872 64.1012 115.964 64.0827 116.057L65.1374 116.63C65.1374 116.63 65.1651 116.584 65.1744 116.565C67.6075 112.56 70.2534 108.656 73.0381 104.955C73.0566 104.927 73.0751 104.909 73.1028 104.881L73.0473 104.27C71.2988 102.809 69.4485 98.6918 69.5133 93.0484C69.5965 90.2452 70.1979 87.3773 71.1786 85.0182C71.9094 83.3807 72.8161 81.9559 73.6949 81.077C75.1012 82.8811 76.2946 87.257 76.0078 92.7523C75.869 95.759 75.4157 98.4419 74.6941 100.514C74.6478 100.662 74.6108 100.755 74.5738 100.857C74.5368 100.94 74.5091 101.032 74.4721 101.125L75.4434 101.856C78.4131 98.1182 81.6419 94.4638 85.0187 91.013C85.1944 90.8373 85.361 90.6801 85.5275 90.5043C85.7033 89.5977 86.0363 88.5892 86.5266 87.553C87.4795 85.5455 89.117 83.5102 91.2634 81.6506C92.9564 80.2722 94.8529 79.2453 96.7217 78.718C98.7477 78.1352 100.32 78.2369 101.32 78.5699C100.792 81.1326 98.5535 84.8979 94.8899 87.8491C93.1599 89.3294 91.1801 90.4488 88.969 91.2074C88.7747 91.2722 88.5897 91.3276 88.3954 91.3831C87.8958 91.5219 87.424 91.6052 86.9707 91.6515C86.7579 91.8642 86.5359 92.077 86.3231 92.299C82.9834 95.7128 79.8009 99.3116 76.8589 103.003C76.7849 103.095 76.7202 103.179 76.6461 103.271L76.8219 103.558C76.8867 103.512 76.9607 103.475 77.0254 103.438C77.0717 103.41 77.1087 103.382 77.1642 103.355C77.7933 103.077 78.4779 102.818 79.181 102.642C80.5872 102.263 82.0304 102.124 83.4829 102.235C88.0994 102.624 91.2541 105.094 92.5863 107C92.0035 107.592 91.0968 108.11 89.9959 108.47C89.6074 108.609 89.2373 108.73 88.8488 108.831C87.313 109.229 85.6478 109.368 83.89 109.248C79.6898 109.072 76.2021 107.527 74.6108 105.954C74.5831 105.991 74.5461 106.028 74.5276 106.065C71.7799 109.719 69.1617 113.568 66.7656 117.518C66.7101 117.611 66.6546 117.713 66.5991 117.796L66.7471 117.981L66.8581 117.898C66.9044 117.851 66.9599 117.814 67.0154 117.777C68.1441 117.01 69.5133 116.39 70.975 116.02C71.6411 115.844 72.3165 115.724 73.0011 115.659C77.5343 115.307 80.9203 117.195 82.4468 118.841C81.9564 119.507 81.1331 120.155 80.1062 120.682C79.144 121.247 78.0431 121.672 76.7849 121.987C75.9985 122.19 75.1474 122.338 74.2685 122.431C70.1979 122.93 66.6361 121.996 64.8691 120.738C64.8413 120.784 64.8228 120.821 64.7951 120.867C62.5562 124.799 60.4654 128.916 58.5966 133.125C58.5504 133.218 58.5133 133.32 58.4671 133.403L58.7076 133.634L58.8094 133.533C58.8557 133.477 58.9112 133.412 58.9667 133.357C60.3544 132.015 62.3342 130.933 64.5268 130.332C68.8935 129.258 72.4182 130.563 74.1112 131.932C73.7227 132.635 73.0011 133.412 72.0574 134.115C70.7252 135.198 68.8472 136.104 66.5991 136.743C66.3308 136.826 66.0625 136.9 65.7942 136.956C62.4822 137.742 59.0314 137.548 57.1349 136.502C57.0979 136.604 57.0516 136.697 57.0146 136.798C55.2846 141.017 53.7396 145.384 52.4259 149.769C52.4167 149.834 52.3982 149.889 52.3797 149.945L52.8422 150.259C54.1374 148.492 55.997 147.021 58.097 146.115C58.8187 145.8 59.5773 145.55 60.3266 145.384C63.3796 144.671 66.0533 145.208 67.6352 146.142C66.9414 147.909 64.7211 150.305 60.928 152.063C59.7253 152.627 58.4856 153.053 57.2459 153.331C56.4226 153.516 55.6177 153.627 54.8498 153.682C53.5176 153.765 52.3149 153.599 51.4453 153.22C51.3898 153.423 51.325 153.627 51.2788 153.83C50.1223 158.151 49.1787 162.582 48.4571 167.023C48.4571 167.06 48.4478 167.087 48.4386 167.124L49.1694 167.485C50.2148 165.515 51.8523 163.748 53.7951 162.527C55.0903 161.703 56.4688 161.13 57.9028 160.815C60.1046 160.334 61.9456 160.602 63.1021 161.056C62.6487 162.897 60.7707 165.607 57.3014 167.929C55.3864 169.197 53.2956 170.113 51.4175 170.501C50.0576 170.788 48.8364 170.788 47.976 170.501L47.9297 170.538C47.9112 170.677 47.8835 170.806 47.865 170.945C47.2451 175.571 46.8658 180.215 46.727 184.748L47.7077 185.063L47.754 184.933C47.791 184.85 47.8187 184.758 47.8557 184.665C48.5681 182.796 49.9095 180.946 51.621 179.447C53.6194 177.662 55.6732 176.912 57.0516 176.607L57.2737 176.561C58.4579 176.32 59.605 176.302 60.5117 176.515C60.4284 177.144 60.1786 178.097 59.5218 179.429C58.6984 181.002 57.3847 182.667 55.7102 184.23C53.3881 186.33 50.8069 187.774 48.6514 188.19C48.0038 188.31 47.4302 188.338 46.9398 188.255L46.653 188.56C46.653 188.912 46.653 189.263 46.653 189.624V190.216C46.6993 194.351 46.9121 198.477 47.2914 202.483L48.5033 202.668C48.5218 202.585 48.5403 202.493 48.5496 202.419C48.5588 202.354 48.5773 202.289 48.5958 202.224C48.8826 201.123 49.2434 200.18 49.6782 199.329C50.2333 198.302 50.8809 197.321 51.6303 196.442C53.3788 194.342 55.2846 193.278 56.5706 192.769C57.1812 192.529 57.7825 192.344 58.3746 192.233C58.9389 192.122 59.4755 192.085 59.9566 192.113C59.9566 192.936 59.753 193.991 59.3645 195.147C59.0684 195.97 58.6521 196.84 58.1433 197.71C57.5142 198.792 56.9221 199.68 56.2468 200.494C53.8414 203.418 50.9919 205.462 48.8086 205.842C48.5773 205.888 48.3553 205.906 48.1518 205.906L47.7447 206.471C48.0315 208.765 48.3738 211.087 48.7809 213.391C49.1879 215.667 49.6413 217.915 50.1316 220.079H51.5008C51.51 219.978 51.51 219.904 51.5193 219.821C51.5193 219.747 51.5193 219.682 51.5378 219.608C51.6766 218.47 51.9078 217.48 52.2316 216.555C52.6387 215.445 53.1568 214.371 53.7766 213.372C54.3872 212.373 55.0903 211.476 55.8582 210.708C56.5706 210.014 57.3569 209.403 58.1618 208.913C59.1332 208.321 60.1324 207.932 61.0205 207.775C61.15 207.747 61.2703 207.738 61.3905 207.729C61.4183 207.969 61.4368 208.228 61.4276 208.515C61.4276 209.302 61.3535 210.069 61.1963 210.828C61.002 211.716 60.7152 212.651 60.3174 213.604C59.8548 214.76 59.3645 215.759 58.8186 216.675C56.2653 220.912 53.3326 223.086 51.5563 223.364L51.1307 224.196C52.2594 228.554 53.6194 232.93 55.1828 237.213L56.6261 236.945C56.5336 235.27 56.7001 232.68 57.9953 229.831C59.1147 227.24 60.6504 225.593 61.7514 224.668C62.7783 223.808 63.8329 223.225 64.7858 222.975C64.9431 223.604 65.0726 224.594 64.9801 226.13C64.8506 227.897 64.2955 230.062 63.3888 232.356C61.5941 236.732 58.8464 239.6 57.0701 240.174L56.7186 241.163C58.4301 245.41 60.3544 249.591 62.4544 253.597L63.8237 253.107C63.8052 253.015 63.7867 252.922 63.7682 252.839C63.7497 252.737 63.7219 252.626 63.7127 252.524C63.5554 251.322 63.5184 250.304 63.5924 249.323C63.7127 248.111 63.9439 246.89 64.2862 245.706C65.6369 241.099 68.2828 238.592 70.0869 237.796C70.4292 238.555 70.6512 239.628 70.6975 240.868C70.7345 241.802 70.679 242.819 70.5309 243.883C70.3737 245.234 70.1794 246.335 69.8926 247.371C68.6529 252.071 66.3123 255.392 64.6285 256.253L64.4158 257.261C66.6176 261.174 69.0507 265.051 71.6596 268.77L72.8993 268.085C72.8438 267.9 72.7883 267.715 72.742 267.53C72.4738 266.503 72.2887 265.421 72.2054 264.292C72.1407 263.265 72.2055 262.016 72.4182 260.573C73.1676 255.734 75.4712 252.783 77.1457 251.692C77.5713 252.404 77.9228 253.44 78.1171 254.68C78.2744 255.559 78.3114 256.604 78.3576 257.705V257.779C78.4039 258.917 78.3391 260.11 78.1819 261.341C77.8673 263.746 77.2105 266.133 76.3316 268.03C75.6655 269.482 74.8976 270.555 74.1298 271.129L74.065 272.082C76.7757 275.727 79.6991 279.261 82.7428 282.601L82.8168 282.471L83.8437 281.703L83.7975 281.583C83.7512 281.481 83.7142 281.389 83.6772 281.296C83.2794 280.288 82.9649 279.205 82.7428 278.077C82.4838 276.809 82.3913 275.588 82.4283 274.348C82.567 269.297 84.4543 265.948 85.9531 264.579C86.4619 265.236 86.9245 266.235 87.2853 267.456C87.5351 268.372 87.7848 269.408 87.9699 270.509C88.1549 271.656 88.2474 272.887 88.2474 274.163C88.2196 278.835 87.128 283.063 85.5552 284.682L85.6108 285.644C88.7747 288.919 92.1145 292.046 95.5468 294.951L95.6208 294.775C95.6208 294.775 95.5745 294.729 95.5468 294.711L96.4442 293.776C95.26 291.741 94.4181 289.178 94.085 286.56C93.5762 281.453 95.0009 277.762 96.3146 276.125C96.8975 276.717 97.4896 277.66 97.9891 278.844L98.0169 278.909C98.8865 280.686 99.5156 282.952 99.8394 285.469C100.172 288.253 100.172 290.705 99.8672 292.74C99.6266 294.396 99.1641 295.765 98.5905 296.57L98.7848 297.597C102.365 300.456 106.112 303.157 109.96 305.646L110.044 305.294C109.979 305.257 109.914 305.211 109.849 305.174L110.617 304.073C110.571 304.008 110.516 303.953 110.469 303.897C110.451 303.87 110.432 303.851 110.414 303.833C109.091 301.964 108.008 299.577 107.379 297.135C106.574 294.109 106.787 291.334 106.991 289.937C107.213 288.447 107.638 287.134 108.175 286.218C109.026 286.912 109.933 288.244 110.275 288.744C111.357 290.4 112.273 292.629 112.912 295.155C114.392 300.474 114.068 304.813 113.143 306.608L113.532 307.801L113.448 307.829L113.467 307.801Z" fill="#142819"/>
<path d="M321.06 213.71C320.671 215.884 320.237 218.03 319.783 220.093C320.255 219.39 320.866 218.613 321.661 217.706C322.448 216.79 323.336 215.911 324.298 215.097C325.26 214.292 326.259 213.571 327.286 212.96C328.202 212.396 329.109 211.952 329.988 211.628C331.246 211.165 332.421 210.99 333.281 211.138C333.226 211.582 333.133 212.072 332.994 212.581C332.754 213.404 332.365 214.348 331.829 215.366C331.283 216.402 330.644 217.401 329.923 218.317C329.164 219.261 328.248 220.167 327.212 221.018C323.974 223.673 320.782 224.312 318.867 224.025C317.748 228.447 316.37 232.888 314.806 237.245C316.12 235.793 317.794 234.387 319.691 233.156C321.819 231.842 323.9 230.954 325.704 230.593C326.685 230.399 327.592 230.353 328.322 230.464C328.563 230.501 328.794 230.556 328.988 230.621C328.692 231.861 327.999 233.295 327.055 234.599C325.575 236.699 323.817 238.346 321.809 239.493C319.21 241.029 316.444 241.732 314.205 241.427C313.881 241.381 313.576 241.307 313.289 241.214C311.568 245.544 309.616 249.809 307.497 253.907C308.219 253.297 309.042 252.741 309.718 252.288C310.68 251.631 311.735 251.048 312.845 250.54C315.657 249.263 318.516 248.708 320.69 248.995C321.347 249.087 321.911 249.254 322.346 249.476C321.883 250.614 321.014 251.936 319.904 253.167C319.145 254.009 318.294 254.795 317.396 255.48C316.462 256.155 315.37 256.757 314.14 257.265C311.355 258.422 309.153 258.468 307.794 258.302C306.924 258.191 306.138 257.968 305.49 257.635C303.233 261.688 300.735 265.684 298.052 269.523C298.82 269.024 299.671 268.561 300.605 268.154C301.808 267.636 302.807 267.201 303.963 266.887C306.202 266.239 308.386 266.026 310.282 266.239C311.633 266.396 312.752 266.776 313.465 267.312C312.863 268.395 311.846 269.588 310.606 270.652C309.792 271.337 308.894 272.04 307.83 272.567C306.702 273.141 305.536 273.576 304.37 273.872C302.742 274.279 301.169 274.408 299.68 274.251C299.125 274.186 298.579 274.084 298.08 273.946C297.145 273.687 296.322 273.289 295.674 272.808C292.843 276.638 289.79 280.348 286.589 283.835C287.468 283.401 288.449 283.031 289.494 282.735C290.54 282.457 291.724 282.216 293.019 282.031C294.407 281.846 295.748 281.819 297.034 281.948C299.365 282.179 301.345 282.947 302.335 283.974C301.604 284.973 300.439 286.037 299.06 286.944C298.246 287.508 297.238 287.989 296.072 288.387C294.888 288.785 293.685 289.053 292.492 289.164C291.622 289.266 290.762 289.266 289.92 289.192C287.191 288.942 285.118 287.823 283.98 286.62C280.65 290.08 277.125 293.383 273.489 296.454C274.997 295.927 277.292 295.409 280.289 295.585C280.678 295.585 281.075 295.612 281.473 295.649C285.368 295.983 288.162 297.509 289.235 299.017C288.393 299.924 287.117 300.821 285.673 301.515C284.138 302.153 281.705 302.875 278.809 302.718C278.652 302.718 278.504 302.708 278.356 302.69C276.348 302.533 274.359 301.829 272.74 300.719C271.88 300.127 271.186 299.443 270.695 298.73C266.985 301.718 263.081 304.531 259.085 307.121C260.324 306.881 261.666 306.816 263.1 306.927C263.96 306.992 264.848 307.121 265.718 307.297C268.327 307.889 270.307 308.685 271.787 309.721C272.925 310.498 273.776 311.395 274.22 312.265C273.471 312.903 272.176 313.773 270.344 314.208C268.734 314.633 267.013 314.8 265.366 314.689C264.682 314.643 264.016 314.55 263.396 314.421C259.483 313.477 256.911 311.201 255.875 309.147C250.944 312.154 245.828 314.855 240.563 317.233V315.207C245.365 313.005 250.046 310.516 254.561 307.787L254.478 307.76L254.857 306.566C253.941 304.781 253.617 300.432 255.088 295.113C255.736 292.587 256.661 290.367 257.725 288.702C258.067 288.202 258.983 286.87 259.825 286.176C260.361 287.092 260.787 288.406 261.009 289.895C261.213 291.283 261.435 294.058 260.621 297.093C259.991 299.535 258.909 301.922 257.595 303.791C257.577 303.818 257.558 303.837 257.54 303.855C257.484 303.911 257.438 303.976 257.383 304.031L258.15 305.132C258.086 305.178 258.021 305.215 257.956 305.252L258.039 305.604C261.888 303.125 265.644 300.414 269.224 297.555L269.419 296.528C268.845 295.723 268.392 294.363 268.142 292.698C267.827 290.663 267.846 288.211 268.17 285.427C268.484 282.91 269.123 280.644 269.992 278.867L270.02 278.803C270.52 277.618 271.112 276.675 271.694 276.083C273.008 277.72 274.433 281.412 273.933 286.518C273.591 289.136 272.749 291.699 271.565 293.734L272.472 294.669C272.472 294.669 272.425 294.706 272.398 294.734L272.462 294.909C275.904 292.004 279.234 288.877 282.408 285.602L282.463 284.64C280.881 283.021 279.808 278.793 279.771 274.121C279.771 272.845 279.873 271.614 280.049 270.467C280.224 269.366 280.483 268.339 280.733 267.414C281.085 266.202 281.557 265.194 282.065 264.537C283.583 265.906 285.461 269.264 285.59 274.306C285.636 275.546 285.535 276.767 285.276 278.035C285.054 279.163 284.739 280.246 284.341 281.254C284.304 281.356 284.258 281.449 284.221 281.541L284.165 281.661L285.192 282.429L285.266 282.559C288.319 279.219 291.233 275.685 293.944 272.04L293.879 271.087C293.111 270.513 292.353 269.44 291.678 267.988C290.799 266.091 290.142 263.704 289.836 261.299C289.679 260.069 289.614 258.875 289.651 257.737V257.663C289.698 256.562 289.735 255.517 289.901 254.638C290.105 253.398 290.447 252.362 290.873 251.65C292.547 252.741 294.842 255.683 295.6 260.531C295.813 261.974 295.887 263.223 295.813 264.25C295.73 265.37 295.554 266.461 295.286 267.488C295.23 267.682 295.175 267.858 295.119 268.043L296.359 268.728C298.968 265 301.392 261.132 303.603 257.219L303.39 256.211C301.715 255.35 299.365 252.029 298.126 247.329C297.848 246.293 297.645 245.192 297.487 243.842C297.349 242.778 297.293 241.76 297.33 240.826C297.376 239.586 297.589 238.513 297.941 237.754C299.745 238.55 302.391 241.057 303.741 245.664C304.084 246.848 304.315 248.069 304.435 249.281C304.519 250.262 304.482 251.289 304.324 252.482C304.306 252.593 304.287 252.695 304.259 252.797C304.241 252.88 304.222 252.973 304.204 253.065L305.573 253.556C307.673 249.559 309.588 245.368 311.309 241.122L310.957 240.132C309.172 239.558 306.434 236.69 304.629 232.314C303.723 230.02 303.168 227.855 303.038 226.088C302.946 224.552 303.075 223.553 303.242 222.933C304.185 223.183 305.249 223.775 306.267 224.626C307.368 225.551 308.904 227.189 310.023 229.789C311.318 232.638 311.485 235.228 311.392 236.903L312.845 237.171C314.408 232.879 315.768 228.512 316.897 224.155L316.471 223.322C314.695 223.044 311.753 220.861 309.209 216.633C308.654 215.717 308.164 214.709 307.71 213.562C307.312 212.609 307.016 211.674 306.831 210.786C306.674 210.037 306.591 209.269 306.6 208.473C306.6 208.196 306.609 207.928 306.646 207.687C306.767 207.696 306.887 207.715 307.016 207.733C307.914 207.891 308.904 208.279 309.884 208.871C310.689 209.361 311.466 209.972 312.179 210.666C312.947 211.434 313.65 212.331 314.26 213.33C314.88 214.33 315.398 215.403 315.805 216.513C316.138 217.438 316.36 218.437 316.508 219.566C316.508 219.64 316.518 219.705 316.518 219.779C316.518 219.862 316.527 219.945 316.536 220.038H317.905C318.386 217.891 318.84 215.634 319.256 213.349C319.663 211.036 320.005 208.714 320.292 206.429L319.894 205.864C319.682 205.864 319.469 205.846 319.228 205.8C317.045 205.42 314.195 203.376 311.79 200.452C311.124 199.629 310.523 198.75 309.894 197.668C309.375 196.798 308.959 195.928 308.672 195.105C308.284 193.949 308.08 192.885 308.08 192.071C308.561 192.043 309.098 192.071 309.672 192.191C310.254 192.302 310.856 192.478 311.466 192.727C312.761 193.246 314.667 194.3 316.416 196.4C317.156 197.279 317.813 198.26 318.359 199.287C318.803 200.138 319.154 201.091 319.45 202.182C319.46 202.247 319.478 202.312 319.487 202.377C319.506 202.46 319.515 202.543 319.534 202.626L320.745 202.441C321.134 198.445 321.347 194.309 321.384 190.165V188.527L321.088 188.222C320.607 188.305 320.024 188.278 319.376 188.157C317.221 187.741 314.649 186.298 312.317 184.198C310.652 182.643 309.329 180.978 308.506 179.396C307.84 178.064 307.59 177.111 307.516 176.482C308.432 176.269 309.57 176.288 310.754 176.528L310.976 176.575C312.354 176.88 314.418 177.629 316.407 179.415C318.118 180.913 319.45 182.764 320.172 184.633C320.209 184.725 320.246 184.818 320.274 184.901L320.32 185.03L321.301 184.716C321.162 180.183 320.782 175.538 320.163 170.922C320.144 170.783 320.126 170.644 320.107 170.515L320.061 170.478C319.201 170.755 317.979 170.755 316.619 170.478C314.741 170.089 312.66 169.173 310.745 167.906C307.266 165.584 305.397 162.873 304.944 161.032C306.1 160.579 307.942 160.32 310.143 160.792C311.568 161.106 312.947 161.68 314.251 162.503C316.185 163.724 317.831 165.491 318.877 167.462L319.598 167.101C319.598 167.101 319.598 167.036 319.589 166.999C318.858 162.568 317.915 158.127 316.767 153.807C316.712 153.603 316.656 153.4 316.601 153.196C315.722 153.576 314.538 153.742 313.196 153.659C312.428 153.613 311.614 153.492 310.8 153.307C309.551 153.03 308.312 152.604 307.118 152.04C303.325 150.282 301.105 147.886 300.411 146.119C301.984 145.184 304.667 144.648 307.71 145.36C308.46 145.536 309.218 145.786 309.949 146.091C312.04 146.998 313.909 148.478 315.195 150.236L315.657 149.921C315.639 149.866 315.629 149.81 315.611 149.755C314.297 145.36 312.752 141.003 311.022 136.784C310.976 136.682 310.939 136.59 310.902 136.488C308.996 137.534 305.545 137.728 302.243 136.941C301.974 136.877 301.706 136.803 301.429 136.729C299.19 136.09 297.302 135.184 295.979 134.101C295.036 133.389 294.323 132.621 293.916 131.918C295.619 130.549 299.153 129.244 303.501 130.317C305.693 130.919 307.664 131.992 309.061 133.343C309.116 133.398 309.172 133.463 309.227 133.518L309.32 133.62L309.57 133.389C309.524 133.287 309.486 133.195 309.449 133.102C307.571 128.902 305.481 124.776 303.242 120.844C303.214 120.798 303.196 120.761 303.168 120.715C301.401 121.973 297.839 122.907 293.768 122.407C292.899 122.315 292.048 122.167 291.252 121.963C289.994 121.649 288.893 121.223 287.931 120.659C286.904 120.122 286.09 119.475 285.59 118.818C287.126 117.18 290.503 115.293 295.045 115.636C295.73 115.7 296.414 115.83 297.071 115.996C298.524 116.366 299.902 116.986 301.021 117.754C301.077 117.791 301.123 117.837 301.179 117.874L301.29 117.958L301.438 117.782C301.382 117.689 301.318 117.587 301.262 117.504C298.866 113.545 296.257 109.696 293.509 106.051C293.482 106.014 293.445 105.968 293.426 105.931C291.826 107.503 288.338 109.058 284.138 109.224C282.38 109.344 280.705 109.206 279.179 108.808C278.8 108.706 278.42 108.586 278.041 108.447C276.931 108.086 276.024 107.568 275.451 106.976C276.764 105.07 279.928 102.61 284.554 102.212C285.997 102.11 287.45 102.239 288.847 102.619C289.55 102.804 290.244 103.054 290.863 103.331C290.91 103.359 290.956 103.387 291.002 103.414C291.067 103.461 291.132 103.498 291.196 103.535L291.372 103.248C291.307 103.165 291.233 103.072 291.159 102.98C288.208 99.2882 285.035 95.6802 281.695 92.2757C281.482 92.0537 281.27 91.8501 281.048 91.628C280.594 91.5818 280.123 91.4892 279.623 91.3597C279.438 91.3134 279.244 91.2487 279.049 91.184C276.848 90.4254 274.858 89.3059 273.138 87.8257C269.465 84.8745 267.235 81.0999 266.708 78.5465C267.698 78.2135 269.28 78.1117 271.306 78.6946C273.175 79.2311 275.071 80.2488 276.764 81.6273C278.911 83.4868 280.548 85.5222 281.501 87.5297C282.001 88.5659 282.324 89.5742 282.5 90.4809C282.667 90.6566 282.842 90.8139 283.009 90.9897C286.386 94.4405 289.614 98.0948 292.593 101.832L293.565 101.101C293.537 101 293.5 100.917 293.463 100.833C293.417 100.731 293.38 100.639 293.343 100.491C292.612 98.4185 292.159 95.7357 292.029 92.729C291.742 87.2337 292.936 82.8485 294.342 81.0537C295.221 81.9326 296.127 83.348 296.858 84.9947C297.848 87.3631 298.44 90.2218 298.524 93.025C298.588 98.6591 296.738 102.785 294.99 104.247L294.943 104.858C294.943 104.858 294.99 104.913 295.008 104.941C297.793 108.632 300.439 112.536 302.872 116.542C302.881 116.561 302.899 116.588 302.909 116.607L303.963 116.033C303.945 115.941 303.917 115.848 303.899 115.756C303.871 115.645 303.843 115.543 303.815 115.386C303.362 113.101 303.26 110.427 303.519 107.614C303.926 102.239 305.638 98.2057 307.229 96.6793C307.969 97.6692 308.672 99.1772 309.163 100.87C309.635 102.702 310.116 105.598 309.764 108.947C309.116 114.442 306.813 118.152 304.926 119.281L304.805 119.826C304.805 119.826 304.833 119.873 304.852 119.91C307.118 123.888 309.237 128.079 311.143 132.325C311.152 132.353 311.17 132.39 311.18 132.427L312.123 132.094C312.123 131.992 312.105 131.899 312.095 131.807C312.095 131.705 312.077 131.613 312.068 131.492C311.929 129.004 312.16 126.441 312.752 123.851C313.825 118.688 315.981 115.034 317.702 113.813C318.322 114.914 318.812 116.487 319.052 118.189C319.395 120.973 319.256 123.647 318.645 126.145C317.359 131.391 314.658 134.647 312.687 135.443L312.595 135.702C312.641 135.831 312.697 135.952 312.752 136.09C314.51 140.365 316.083 144.787 317.406 149.237C317.415 149.264 317.424 149.292 317.433 149.32L318.127 149.181C318.211 146.776 318.766 144.028 319.746 141.243C321.476 136.303 323.965 133.121 325.797 132.214C326.287 133.417 326.565 135.036 326.574 136.701C326.565 139.587 326.111 142.104 325.205 144.417C324.011 147.525 322.512 149.449 321.458 150.513C320.403 151.577 319.311 152.29 318.349 152.549C318.423 152.817 318.497 153.085 318.571 153.353C319.737 157.729 320.699 162.226 321.43 166.713C321.43 166.759 321.439 166.796 321.449 166.833H321.846C322.216 164.464 323.105 161.865 324.381 159.293C326.694 154.713 329.516 151.993 331.394 151.383C332.023 153.797 331.792 158.655 329.312 163.28C327.166 167.342 324.067 169.738 321.939 170.145C321.967 170.339 321.994 170.524 322.013 170.709C322.642 175.4 323.031 180.109 323.169 184.706V184.855L323.308 184.873C323.336 184.79 323.354 184.697 323.373 184.623C323.391 184.54 323.419 184.447 323.438 184.383C324.224 182.088 325.334 179.905 326.703 177.888C328.221 175.696 329.849 173.91 331.412 172.735C332.55 171.875 333.651 171.338 334.521 171.199C334.697 172.458 334.567 174.086 334.151 175.714C333.734 177.463 332.856 180.062 331.024 182.588C328.535 186.113 325.38 187.972 323.234 188.166C323.234 188.268 323.234 188.361 323.234 188.453V190.202C323.197 194.402 322.975 198.565 322.587 202.599C322.614 202.534 322.633 202.478 322.67 202.404C323.058 201.581 323.595 200.656 324.363 199.509C325.038 198.482 325.815 197.473 326.676 196.521C328.406 194.615 330.219 193.116 331.921 192.172C333.133 191.506 334.28 191.145 335.159 191.155C335.168 192.404 334.845 193.995 334.234 195.558C333.818 196.669 333.3 197.751 332.698 198.778C332.06 199.823 331.264 200.869 330.33 201.868C327.481 204.949 324.279 206.207 322.207 206.161C322.207 206.188 322.207 206.207 322.207 206.235C321.911 208.686 321.532 211.193 321.088 213.7L321.06 213.71Z" fill="#142819"/>
<path d="M8.2693 205.299C12.2597 205.299 15.4946 202.064 15.4946 198.074C15.4946 194.084 12.2597 190.849 8.2693 190.849C4.27884 190.849 1.04395 194.084 1.04395 198.074C1.04395 202.064 4.27884 205.299 8.2693 205.299Z" fill="#142819"/>
<path d="M359.783 205.299C363.773 205.299 367.008 202.064 367.008 198.074C367.008 194.084 363.773 190.849 359.783 190.849C355.793 190.849 352.558 194.084 352.558 198.074C352.558 202.064 355.793 205.299 359.783 205.299Z" fill="#142819"/>
</svg>
