<svg width="28" height="20" viewBox="0 0 28 20" fill="none" xmlns="http://www.w3.org/2000/svg">
<g clip-path="url(#clip0_951_31115)">
<path d="M25.6 20H2.4C1.072 20 0 18.928 0 17.6V2.4C0 1.072 1.072 0 2.4 0H25.6C26.928 0 28 1.072 28 2.4V17.6C28 18.928 26.928 20 25.6 20Z" fill="#016FD0"/>
<path d="M25.6 0.8C26.48 0.8 27.2 1.52 27.2 2.4V17.6C27.2 18.48 26.48 19.2 25.6 19.2H2.4C1.52 19.2 0.8 18.48 0.8 17.6V2.4C0.8 1.52 1.52 0.8 2.4 0.8H25.6ZM25.6 0H2.4C1.072 0 0 1.072 0 2.4V17.6C0 18.928 1.072 20 2.4 20H25.6C26.928 20 28 18.928 28 17.6V2.4C28 1.072 26.928 0 25.6 0Z" fill="#EAEAEA"/>
<path d="M5.92949 14.8813V10.7261H10.318L10.7889 11.3413L11.2753 10.726H27.2047V14.5948C27.2047 14.5948 26.7881 14.8771 26.3063 14.8813H17.4859L16.955 14.2262V14.8813H15.2155V13.7631C15.2155 13.7631 14.9779 13.9193 14.4641 13.9193H13.872V14.8813H11.2381L10.7679 14.2527L10.2905 14.8813H5.92949ZM0.804688 7.59429L1.79429 5.28125H3.50581L4.06741 6.57693V5.28125H6.19493L6.52933 6.21773L6.85325 5.28125H16.4036V5.75205C16.4036 5.75205 16.9058 5.28125 17.7309 5.28125L20.8296 5.29213L21.3816 6.57077V5.28125H23.162L23.652 6.01581V5.28125H25.4488V9.43645H23.652L23.1824 8.69957V9.43645H20.5666L20.3035 8.78141H19.6003L19.3415 9.43645H17.5676C16.8576 9.43645 16.4037 8.97533 16.4037 8.97533V9.43645H13.729L13.1982 8.78141V9.43645H3.25229L2.98941 8.78141H2.28837L2.02741 9.43645H0.804688V7.59429Z" fill="white"/>
<path d="M2.21806 5.78962L0.890625 8.87346H1.75478L1.99974 8.25586H3.42366L3.66726 8.87346H4.55062L3.22438 5.78962H2.21806ZM2.70918 6.50722L3.14318 7.58642H2.27391L2.7091 6.5073L2.70918 6.50722ZM4.64198 8.8729V5.78906L5.86998 5.79362L6.58438 7.78194L7.28158 5.78914H8.4999V8.8729H7.7283V6.60058L6.91039 8.8729H6.23375L5.4135 6.60058V8.8729H4.64198ZM9.02782 8.8729V5.78906H11.5457V6.4789H9.8075V7.00642H11.5051V7.65562H9.8075V8.20346H11.5457V8.8729H9.02782ZM11.9924 5.78962V8.87346H12.764V7.77786H13.0888L14.014 8.87346H14.9569L13.9417 7.7373C14.3583 7.7021 14.7881 7.34482 14.7881 6.7901C14.7881 6.14114 14.2783 5.78962 13.7094 5.78962H11.9924ZM12.764 6.47938H13.6459C13.8575 6.47938 14.0115 6.64474 14.0115 6.80402C14.0115 7.0089 13.812 7.12866 13.6573 7.12866H12.764V6.47938ZM15.8909 8.87298H15.1031V5.78906H15.8909V8.87298ZM17.7589 8.87298H17.5889C16.7661 8.87298 16.2665 8.22522 16.2665 7.3437C16.2665 6.44042 16.7605 5.78906 17.7996 5.78906H18.6524V6.51946H17.7684C17.3466 6.51946 17.0484 6.84834 17.0484 7.3513C17.0484 7.9485 17.3894 8.1993 17.8808 8.1993H18.0838L17.759 8.8729L17.7589 8.87298ZM19.438 5.78962L18.1105 8.87346H18.9748L19.2197 8.25586H20.6436L20.8873 8.87346H21.7705L20.4443 5.78962H19.438ZM19.9291 6.50722L20.3631 7.58642H19.4938L19.929 6.5073L19.9291 6.50722ZM21.8606 8.8729V5.78906H22.8416L24.0941 7.72666V5.78906H24.8657V8.8729H23.9165L22.6321 6.88466V8.8729H21.8606ZM6.50998 14.2697V11.1859H9.02782V11.8756H7.28974V12.4031H8.98718V13.0524H7.28974V13.6002H9.02782V14.2698L6.50998 14.2697ZM18.8473 14.2697V11.1859H21.3652V11.8756H19.627V12.4031H21.3165V13.0524H19.627V13.6002H21.3651V14.2698L18.8473 14.2697ZM9.1255 14.2697L10.3514 12.7467L9.09647 11.1859H10.0685L10.8161 12.1509L11.5661 11.1859H12.5001L11.2615 12.7279L12.4897 14.2698H11.5177L10.7919 13.32L10.0838 14.2698H9.12558L9.1255 14.2697ZM12.5812 11.1863V14.2702H13.3731V13.2963H14.1853C14.8725 13.2963 15.3934 12.932 15.3934 12.2235C15.3934 11.6367 14.9849 11.1863 14.2856 11.1863H12.5812ZM13.3731 11.8838H14.2285C14.4505 11.8838 14.6092 12.0198 14.6092 12.2388C14.6092 12.4447 14.4513 12.5939 14.226 12.5939H13.3731V11.8838ZM15.7285 11.1858V14.2697H16.5001V13.1741H16.8249L17.7501 14.2697H18.693L17.6778 13.1335C18.0944 13.0983 18.5242 12.7411 18.5242 12.1863C18.5242 11.5374 18.0145 11.1858 17.4455 11.1858H15.7285ZM16.5001 11.8756H17.3821C17.5937 11.8756 17.7476 12.041 17.7476 12.2003C17.7476 12.4051 17.5481 12.5249 17.3935 12.5249H16.5001V11.8756ZM21.7225 14.2697V13.6001H23.2667C23.4952 13.6001 23.5941 13.4768 23.5941 13.3415C23.5941 13.2119 23.4955 13.0807 23.2667 13.0807H22.5689C21.9624 13.0807 21.6245 12.7115 21.6245 12.1571C21.6245 11.6627 21.9339 11.1858 22.8353 11.1858H24.3378L24.0129 11.8797H22.7134C22.465 11.8797 22.3885 12.0099 22.3885 12.1343C22.3885 12.2622 22.483 12.4031 22.6728 12.4031H23.4037C24.0799 12.4031 24.3733 12.7863 24.3733 13.2882C24.3733 13.8278 24.0464 14.2697 23.3669 14.2697H21.7225H21.7225ZM24.5545 14.2697V13.6001H26.0986C26.3271 13.6001 26.4261 13.4768 26.4261 13.3415C26.4261 13.2119 26.3274 13.0807 26.0986 13.0807H25.4009C24.7943 13.0807 24.4565 12.7115 24.4565 12.1571C24.4565 11.6627 24.7658 11.1858 25.6672 11.1858H27.1697L26.8449 11.8797H25.5453C25.2969 11.8797 25.2204 12.0099 25.2204 12.1343C25.2204 12.2622 25.3148 12.4031 25.5046 12.4031H26.2356C26.9117 12.4031 27.2052 12.7863 27.2052 13.2882C27.2052 13.8278 26.8782 14.2697 26.1988 14.2697H24.5545Z" fill="#016FD0"/>
</g>
<defs>
<clipPath id="clip0_951_31115">
<rect width="28" height="20" fill="white"/>
</clipPath>
</defs>
</svg>
