<svg width="28" height="20" viewBox="0 0 28 20" fill="none" xmlns="http://www.w3.org/2000/svg">
<g clip-path="url(#clip0_951_31105)">
<path d="M25.6 20H2.4C1.072 20 0 18.928 0 17.6V2.4C0 1.072 1.072 0 2.4 0H25.6C26.928 0 28 1.072 28 2.4V17.6C28 18.928 26.928 20 25.6 20Z" fill="#F8F8F8"/>
<path d="M25.6 0.8C26.48 0.8 27.2 1.52 27.2 2.4V17.6C27.2 18.48 26.48 19.2 25.6 19.2H2.4C1.52 19.2 0.8 18.48 0.8 17.6V2.4C0.8 1.52 1.52 0.8 2.4 0.8H25.6ZM25.6 0H2.4C1.072 0 0 1.072 0 2.4V17.6C0 18.928 1.072 20 2.4 20H25.6C26.928 20 28 18.928 28 17.6V2.4C28 1.072 26.928 0 25.6 0Z" fill="#E7E7E7"/>
<path d="M11.7524 6.56884L10.2804 13.4008H12.0564L13.5284 6.56884H11.7524ZM23.1924 6.56884H21.6804C21.3444 6.56884 21.0484 6.76884 20.9284 7.06484L18.2564 13.4008H20.1204L20.4884 12.3768H22.7684L22.9844 13.4008H24.6324L23.1924 6.56884ZM21.0084 10.9768L21.9364 8.41684L22.4724 10.9768H21.0084ZM9.12044 6.56884L7.27244 11.2168L6.52044 7.26484C6.42444 6.81684 6.08844 6.56084 5.69644 6.56084H2.68844L2.64844 6.76084C3.27244 6.89684 3.96844 7.11284 4.40044 7.33684C4.65644 7.48884 4.73644 7.60884 4.81644 7.94484L6.23244 13.4088H8.10444L10.9924 6.57684H9.12044V6.56884ZM15.8644 8.47284C15.8644 8.23284 16.1044 7.96084 16.6164 7.90484C16.8724 7.88084 17.5764 7.84884 18.3684 8.21684L18.6804 6.76084C18.2484 6.60884 17.6964 6.46484 17.0244 6.46484C15.2724 6.46484 14.0324 7.39284 14.0164 8.72884C14.0004 9.71284 14.9044 10.2648 15.5684 10.5928C16.2564 10.9288 16.4964 11.1448 16.4884 11.4408C16.4884 11.8968 15.9364 12.1048 15.4244 12.1128C14.5364 12.1288 14.0084 11.8728 13.6004 11.6808L13.2804 13.1768C13.6964 13.3688 14.4644 13.5288 15.2644 13.5448C17.1364 13.5448 18.3524 12.6248 18.3684 11.2088C18.3524 9.37684 15.8484 9.26484 15.8644 8.47284Z" fill="#0F2496"/>
</g>
<defs>
<clipPath id="clip0_951_31105">
<rect width="28" height="20" fill="white"/>
</clipPath>
</defs>
</svg>
